<?xml version="1.0" standalone="no"?>
<!DOCTYPE svg PUBLIC "-//W3C//DTD SVG 20010904//EN"
 "http://www.w3.org/TR/2001/REC-SVG-20010904/DTD/svg10.dtd">
<svg version="1.0" xmlns="http://www.w3.org/2000/svg"
 width="502.000000pt" height="690.000000pt" viewBox="0 0 502.000000 690.000000"
 preserveAspectRatio="xMidYMid meet">

<g transform="translate(0.000000,690.000000) scale(0.100000,-0.100000)"
fill="#000000" stroke="none">
<path d="M0 3450 l0 -3450 2510 0 2510 0 0 3450 0 3450 -2510 0 -2510 0 0
-3450z m3930 3260 c0 -13 7 -20 19 -20 11 0 28 -11 39 -25 11 -14 24 -25 28
-25 14 -1 49 -33 57 -52 3 -10 15 -18 26 -18 10 0 31 -13 44 -30 14 -16 33
-30 41 -30 9 0 16 -8 16 -18 0 -17 62 -580 159 -1437 28 -242 73 -645 101
-895 27 -250 61 -552 75 -670 14 -118 54 -478 91 -800 36 -322 79 -686 95
-810 16 -124 34 -256 39 -295 5 -38 32 -238 59 -444 28 -206 49 -376 48 -378
-2 -1 -194 -32 -428 -68 -233 -36 -730 -113 -1104 -171 -374 -58 -844 -132
-1045 -165 -201 -32 -464 -75 -585 -95 -121 -19 -363 -60 -538 -91 l-319 -56
-66 20 -66 20 150 28 c82 15 290 54 463 86 173 33 319 59 325 59 6 0 5 4 -3 9
-10 6 -12 19 -6 47 6 37 7 38 21 19 9 -11 13 -30 11 -42 -2 -13 1 -23 7 -23
14 0 559 101 1085 201 146 28 291 55 321 60 30 6 147 28 260 49 113 21 247 46
299 56 l93 17 -6 46 c-4 25 -7 59 -6 75 0 21 -3 27 -15 22 -19 -7 -20 13 -2
39 11 16 12 47 5 144 -12 186 -32 238 -83 225 -25 -6 -34 8 -38 66 -1 14 -12
40 -24 59 -13 19 -23 40 -23 47 0 7 -4 16 -10 19 -5 3 -7 0 -4 -8 7 -19 -24
-27 -102 -27 -73 0 -150 24 -168 54 -19 30 -30 152 -15 162 8 5 9 3 4 -6 -5
-9 -4 -11 3 -6 13 8 16 85 6 124 -4 13 -14 22 -25 22 -13 0 -19 7 -19 22 0 12
3 18 7 15 3 -4 12 -2 18 3 20 17 45 0 62 -41 21 -54 177 -189 217 -189 12 0
44 -14 72 -32 27 -17 69 -39 94 -49 35 -13 50 -27 67 -59 33 -61 38 -81 19
-74 -11 4 -16 0 -16 -14 0 -12 -9 -27 -20 -35 -18 -13 -19 -16 -5 -27 20 -17
19 -40 -2 -40 -15 0 -15 -1 -1 -13 19 -15 38 -136 38 -242 l0 -75 25 10 c40
15 155 24 155 12 0 -6 -15 -13 -32 -17 -18 -4 -53 -16 -77 -27 -36 -17 -45
-18 -52 -7 -6 9 -9 -7 -9 -46 0 -56 1 -58 18 -42 15 16 15 19 2 27 -13 8 -13
11 0 24 15 15 154 76 173 76 14 0 134 -78 166 -107 21 -20 21 -23 6 -23 -10 0
-16 -2 -13 -6 5 -5 252 38 387 67 l54 11 -7 82 c-7 82 -57 542 -146 1346 -27
245 -52 478 -56 518 -5 58 -10 72 -21 68 -8 -4 -18 -6 -23 -6 -4 0 -11 -24
-15 -52 -10 -77 -15 -90 -32 -84 -9 4 -21 -1 -28 -10 -10 -14 -15 -15 -35 -4
-18 9 -25 10 -28 1 -2 -6 -10 -11 -17 -11 -7 0 -20 -17 -28 -37 -15 -36 -14
-38 6 -48 29 -13 37 -25 37 -57 0 -31 28 -39 49 -14 16 20 49 26 55 11 2 -7
-9 -25 -25 -41 -17 -16 -29 -22 -29 -14 0 23 -38 -20 -45 -51 -4 -16 -10 -29
-15 -29 -15 0 -20 31 -8 50 15 24 9 31 -21 23 -13 -3 -20 -11 -17 -19 3 -7 1
-16 -4 -19 -6 -4 -10 -20 -10 -36 0 -24 -4 -30 -17 -27 -13 3 -17 12 -16 33 1
17 7 31 13 33 23 8 8 24 -19 20 -28 -4 -30 -1 -42 41 -22 86 -38 110 -87 131
l-45 20 7 76 c7 74 6 75 -15 72 -32 -4 -47 24 -29 56 16 32 5 47 -15 20 -16
-22 -19 -62 -6 -96 21 -58 21 -76 2 -81 -35 -9 -98 28 -119 70 -11 21 -29 46
-40 56 -17 16 -20 16 -25 2 -4 -8 -12 -15 -18 -15 -7 0 -5 8 6 20 10 11 21 18
24 15 2 -3 14 18 26 47 21 53 21 53 81 65 32 7 67 10 77 7 20 -6 20 -4 8 30
-9 21 -16 25 -58 26 -113 2 -113 2 -119 29 -3 14 -10 39 -15 54 -7 25 -5 33
19 57 22 21 32 26 45 18 23 -12 39 -1 32 23 -8 24 23 39 36 18 8 -11 17 -6 45
26 33 37 37 39 48 23 16 -22 35 -23 50 -3 15 20 56 8 56 -16 0 -11 5 -19 10
-19 6 0 10 6 10 14 0 8 6 16 14 19 10 4 17 -8 25 -39 13 -49 8 -66 -14 -57 -9
3 -22 0 -29 -7 -10 -7 -21 -8 -33 -2 -10 5 -33 8 -51 7 -17 -2 -35 1 -38 6 -3
5 -9 7 -14 4 -12 -7 -40 -65 -40 -82 0 -18 19 -17 26 2 7 18 43 20 48 3 3 -7
7 -26 11 -41 5 -24 8 -27 21 -17 12 10 18 9 33 -9 10 -11 21 -21 25 -21 3 0
11 20 17 45 12 49 22 54 51 28 18 -16 20 -15 44 10 14 15 35 27 48 27 33 0 41
-28 16 -52 -11 -10 -20 -27 -20 -37 0 -10 -9 -30 -20 -44 -24 -30 -17 -61 11
-52 12 4 21 1 25 -9 6 -16 44 -23 44 -8 0 5 -9 17 -20 27 -24 22 -19 50 16 83
15 14 24 34 24 52 0 21 6 31 23 36 12 5 26 7 30 6 4 -1 5 14 1 34 -4 22 -2 45
6 60 14 25 17 -13 -87 939 -16 138 -29 233 -31 213 -2 -25 -8 -38 -18 -38 -8
0 -14 -5 -14 -12 0 -6 -9 -1 -20 12 -18 21 -20 21 -26 5 -7 -17 -8 -17 -21 1
-7 10 -13 13 -13 7 0 -6 -11 -22 -25 -36 -21 -20 -22 -25 -8 -23 10 0 18 -6
18 -14 1 -8 6 -14 13 -12 7 1 12 -3 12 -10 0 -7 7 -5 18 5 11 10 22 13 32 7 8
-5 18 -6 22 -4 4 3 8 0 8 -7 0 -8 4 -8 15 1 22 18 18 6 -4 -14 -18 -16 -20
-16 -39 5 l-21 21 6 -21 c5 -20 1 -23 -32 -23 -30 0 -35 2 -35 21 0 26 -18 37
-26 16 -5 -12 -9 -13 -20 -4 -10 8 -14 8 -14 0 0 -6 -5 -11 -11 -11 -5 0 -8 4
-5 9 3 5 -2 15 -11 22 -14 12 -15 11 -8 -11 4 -14 13 -28 19 -32 8 -6 7 -11
-4 -17 -9 -7 -17 -6 -21 0 -4 7 -9 4 -12 -5 -4 -9 -2 -16 4 -16 6 0 8 -4 4 -9
-9 -16 34 -34 49 -22 16 14 48 3 40 -13 -3 -6 2 -2 10 8 16 20 16 20 31 0 12
-15 16 -16 23 -6 7 11 11 9 15 -8 4 -16 2 -20 -9 -16 -9 3 -24 1 -35 -4 -13
-7 -19 -7 -19 0 0 5 -5 10 -11 10 -6 0 -8 -8 -5 -17 6 -17 5 -17 -7 -2 -11 14
-17 15 -35 5 -13 -7 -19 -16 -15 -20 4 -5 -2 -4 -13 2 -12 6 -24 8 -28 4 -4
-3 -11 0 -16 8 -8 13 -10 12 -10 -2 0 -22 -26 -24 -34 -3 -3 8 0 15 7 15 8 0
8 3 -2 9 -7 5 -10 14 -7 20 4 6 1 24 -7 40 -12 24 -12 31 -2 35 13 5 30 -36
26 -61 -2 -16 11 -17 27 -1 16 16 15 28 -3 28 -9 0 -12 6 -9 18 5 15 4 15 -6
2 -9 -12 -11 -10 -7 12 2 15 0 25 -4 22 -5 -3 -9 -1 -9 4 0 6 -8 9 -17 8 -10
0 -18 6 -18 14 -1 8 -7 14 -15 12 -17 -4 -41 -25 -25 -22 30 6 37 -1 32 -29
-4 -20 -2 -31 8 -35 8 -3 15 -10 15 -16 0 -6 -5 -8 -12 -4 -6 4 -8 3 -5 -3 4
-6 9 -27 12 -47 6 -33 4 -36 -16 -33 -17 1 -24 -4 -29 -22 -3 -13 -14 -27 -25
-32 -19 -6 -19 -8 5 -17 16 -7 19 -11 9 -11 -9 -1 -22 5 -28 13 -10 12 -8 17
8 26 12 6 21 18 20 28 0 10 -3 12 -6 5 -9 -24 -40 -15 -40 11 0 17 4 23 16 21
14 -2 17 4 14 31 -1 22 2 32 8 28 6 -3 8 -12 5 -20 -3 -8 -1 -14 3 -14 5 0 16
-3 24 -6 25 -9 9 32 -17 44 -27 12 -42 5 -49 -23 -4 -15 -5 -14 -6 8 0 15 -4
27 -8 28 -5 0 -18 2 -30 3 -13 2 -23 -3 -23 -9 0 -7 10 -12 23 -11 20 1 22 -4
23 -51 0 -39 -3 -50 -13 -46 -7 3 -13 -1 -13 -8 0 -7 -3 -9 -6 -6 -4 4 -1 14
6 22 15 18 21 75 8 75 -4 0 -8 -4 -8 -10 0 -5 -11 -10 -25 -10 -16 0 -25 6
-25 15 0 13 -6 12 -37 -5 -37 -20 -58 -18 -50 4 3 7 -1 13 -9 13 -8 0 -14 -7
-14 -16 0 -13 -2 -13 -9 -2 -5 7 -14 10 -20 7 -6 -4 -11 -3 -11 2 0 6 -7 12
-14 15 -10 4 -13 1 -9 -9 5 -12 0 -15 -23 -13 -16 2 -35 -1 -43 -5 -8 -5 -17
-3 -22 5 -7 11 -9 11 -9 -3 0 -22 -18 -27 -55 -16 -46 15 -123 21 -105 9 8 -5
12 -13 8 -16 -3 -3 -13 1 -22 10 -15 15 -17 14 -22 -15 -4 -17 -9 -28 -12 -25
-9 9 -32 -16 -32 -35 0 -13 -10 -19 -37 -22 -21 -3 -39 -1 -41 3 -4 10 -34 -1
-44 -15 -5 -7 -8 -7 -8 2 0 6 -7 12 -15 12 -8 0 -15 -4 -15 -10 0 -5 -6 -7
-13 -4 -7 2 -22 -4 -32 -14 -11 -9 -28 -16 -38 -14 -17 3 -17 2 -2 -35 9 -21
22 -44 30 -52 12 -12 14 -11 12 7 -1 12 -4 22 -7 22 -4 0 -7 7 -7 15 0 12 3
12 17 -3 9 -9 15 -25 12 -36 -4 -13 -1 -17 9 -14 8 3 14 11 14 19 0 7 10 18
22 25 13 6 20 14 15 19 -4 5 -2 5 5 1 9 -5 9 -14 2 -33 -6 -18 -6 -30 2 -39 6
-8 12 -32 13 -54 1 -38 3 -40 53 -61 29 -12 64 -19 78 -17 14 3 26 0 29 -8 3
-8 0 -11 -10 -7 -17 6 -20 -47 -3 -64 23 -23 -10 -21 -35 2 -27 25 -56 33 -56
16 0 -6 6 -13 12 -17 9 -6 5 -10 -11 -14 -43 -10 -34 -28 22 -44 31 -9 61 -16
68 -16 20 0 -58 40 -78 40 -14 1 -12 4 6 14 23 13 27 11 52 -15 15 -16 32 -29
39 -29 6 0 9 -4 5 -9 -3 -6 12 -11 32 -13 l38 -4 -28 -12 c-27 -12 -29 -32 -3
-32 13 0 86 -81 86 -96 0 -17 -35 -44 -57 -44 -33 0 -51 20 -47 55 4 41 -4 48
-33 25 -32 -25 -51 -25 -81 0 -36 29 -25 52 33 68 l49 14 -34 19 c-41 21 -54
24 -44 8 4 -7 1 -10 -7 -7 -8 3 -13 11 -11 17 1 6 -6 11 -15 12 -10 0 -40 2
-66 4 -34 3 -50 0 -53 -10 -7 -17 -34 -8 -34 11 0 13 38 20 78 15 6 -1 12 3
12 10 0 8 4 8 15 -1 13 -10 15 -9 15 9 0 13 6 21 18 21 14 0 15 2 2 10 -19 12
-43 13 -36 1 3 -5 -1 -11 -9 -15 -10 -3 -15 1 -15 13 0 14 -9 20 -37 23 -22 3
-41 0 -45 -6 -5 -7 -8 -6 -8 3 0 9 -12 2 -31 -17 -18 -18 -29 -36 -25 -39 4
-4 11 -2 15 6 6 10 10 9 15 -4 11 -29 7 -55 -9 -55 -8 0 -15 -5 -15 -11 0 -47
-150 233 -171 318 -19 80 -88 203 -74 133 2 -11 0 -18 -6 -15 -5 4 -9 2 -9 -3
0 -6 -13 -15 -30 -21 -28 -9 -42 -31 -20 -31 6 0 10 5 10 11 0 12 42 8 52 -5
4 -6 12 -5 21 2 12 10 16 7 25 -15 6 -16 13 -45 17 -66 3 -21 9 -46 12 -55 4
-13 2 -12 -10 3 -9 11 -17 27 -17 37 0 11 -6 15 -19 11 -12 -3 -24 3 -34 18
l-16 22 -7 -29 c-5 -17 -3 -29 4 -32 48 -16 120 -137 174 -293 l23 -65 20 23
c13 14 27 21 38 17 10 -3 24 0 32 6 11 10 15 7 21 -15 4 -14 2 -31 -3 -36 -12
-12 -115 -31 -122 -22 -3 5 -16 13 -28 20 -17 10 -24 9 -33 -2 -7 -8 -10 -21
-7 -28 3 -8 -9 -21 -30 -32 -31 -17 -115 -123 -119 -150 0 -5 -2 -20 -2 -32
-1 -12 -12 -32 -24 -43 -20 -18 -20 -20 -4 -14 16 6 18 4 13 -10 -4 -10 -7
-22 -7 -27 0 -23 -20 -5 -35 34 -9 23 -24 50 -33 60 -16 18 -16 20 1 32 9 6
17 17 17 23 0 6 8 11 18 11 44 2 60 6 56 13 -2 4 6 17 18 29 13 12 17 19 11
15 -15 -8 -15 -9 -18 72 -1 35 -8 69 -15 75 -10 10 -11 3 -6 -31 9 -62 -22
-130 -76 -165 -26 -17 -35 -27 -24 -27 9 0 14 -4 11 -10 -9 -14 -48 -13 -63 2
-7 7 -12 20 -12 29 0 35 -73 46 -156 23 -17 -5 -25 6 -56 78 -19 46 -39 97
-44 113 -7 28 -8 29 -12 6 -6 -35 5 -79 37 -146 16 -33 28 -61 27 -62 -1 -1
-35 -9 -75 -18 -55 -11 -77 -12 -87 -4 -18 15 -18 53 1 90 9 16 13 34 10 39
-8 14 -35 13 -35 -1 0 -6 7 -9 15 -5 13 4 14 2 5 -14 -6 -11 -14 -20 -17 -20
-3 0 -4 3 0 6 3 4 -3 14 -14 23 -13 10 -18 22 -14 33 7 17 49 33 64 24 5 -3
11 24 14 59 8 80 26 142 43 149 20 8 25 -7 14 -45 -6 -19 -10 -38 -9 -44 2
-16 27 68 28 93 1 20 -1 21 -20 11 -20 -10 -21 -9 -14 12 5 13 10 87 10 164 2
146 11 208 26 183 5 -7 9 -25 9 -40 0 -16 2 -28 4 -28 2 0 11 -3 19 -6 12 -4
14 0 10 17 -4 15 -3 20 5 15 7 -4 12 -13 12 -21 0 -12 12 -20 33 -24 4 0 7 2
6 5 -1 8 23 24 36 24 6 0 3 -5 -5 -11 -12 -8 -11 -9 5 -5 13 4 30 -3 49 -19
38 -32 81 -40 151 -25 l57 12 -52 31 c-29 18 -62 38 -74 45 -18 11 -63 9 -75
-4 -3 -2 6 -15 19 -29 17 -18 19 -25 9 -25 -22 0 -60 30 -53 41 3 6 -6 20 -20
32 l-26 23 39 -4 c45 -4 43 -8 61 138 17 146 11 257 -14 243 -6 -3 -8 -3 -4 2
4 4 3 14 -3 22 -9 9 -8 13 0 13 6 0 11 -4 11 -10 0 -5 5 -10 10 -10 6 0 9 16
6 38 -3 20 -5 45 -5 55 -1 10 -6 15 -11 12 -6 -4 -10 -12 -9 -18 1 -7 1 -23 0
-37 -2 -25 -2 -25 -18 5 -10 17 -16 34 -15 38 1 5 -3 5 -9 2 -6 -4 -9 -16 -6
-26 7 -26 -11 -24 -34 4 -13 16 -19 18 -19 7 -1 -12 -3 -11 -14 3 -13 17 -14
16 -24 -10 -5 -16 -8 -70 -5 -121 3 -84 -12 -200 -34 -257 -6 -17 -7 -17 -13
1 -9 25 0 105 10 99 4 -3 10 17 12 44 2 36 0 47 -9 44 -7 -3 -13 0 -13 6 0 6
5 11 10 11 16 0 12 30 -5 36 -8 4 -15 10 -15 16 0 5 5 6 10 3 6 -4 10 6 10 24
0 16 5 33 10 36 14 9 12 35 -2 33 -24 -5 -37 -33 -38 -78 0 -26 -6 -52 -12
-58 -16 -16 -14 -142 3 -152 7 -5 8 -13 2 -24 -7 -12 -13 -3 -28 41 -11 32
-25 64 -33 72 -17 18 -10 35 16 39 12 2 22 10 22 18 0 8 5 14 11 14 7 0 6 8
-3 23 -8 12 -15 39 -15 60 0 24 -7 45 -21 60 -11 12 -24 34 -27 50 -5 17 -14
27 -25 27 -11 0 -22 5 -25 10 -4 7 -13 6 -26 -1 -27 -14 -16 -24 24 -21 27 2
33 -1 33 -18 0 -14 -7 -20 -21 -20 -12 0 -27 -6 -34 -12 -10 -11 -11 -10 -6 5
4 9 13 17 20 17 8 0 16 4 19 9 4 5 -19 8 -52 7 -40 -1 -61 3 -71 14 -7 8 -5 2
4 -15 10 -16 27 -40 38 -53 l20 -22 -21 0 c-12 0 -22 5 -22 10 0 6 -9 10 -21
10 -15 0 -19 5 -15 15 3 8 1 15 -4 15 -6 0 -10 6 -10 14 0 11 -9 13 -35 9 -28
-5 -35 -2 -35 11 0 10 -5 14 -10 11 -6 -3 -10 3 -10 14 0 12 -5 21 -11 21 -6
0 -3 7 6 16 15 15 15 18 -1 35 -16 18 -16 19 1 19 14 0 15 3 5 15 -11 13 -14
13 -27 0 -15 -15 -33 -12 -33 6 0 6 4 8 9 5 5 -3 14 1 20 8 8 9 8 16 2 20 -5
4 -12 2 -16 -4 -3 -5 -10 -10 -16 -10 -14 0 -11 28 4 33 6 3 2 6 -10 6 -25 1
-29 -10 -12 -40 9 -19 9 -19 -10 -10 -12 7 -18 17 -15 26 4 8 1 15 -6 15 -6 0
-8 4 -5 10 8 13 -8 13 -22 -1 -12 -12 -65 -1 -57 12 3 5 20 9 38 9 32 0 34 3
46 47 16 67 30 81 47 51 9 -13 12 -15 9 -5 -4 12 -1 17 9 15 7 -2 14 0 14 5 3
30 -1 37 -22 37 -25 0 -56 28 -77 70 -15 29 -43 199 -35 218 2 7 16 17 30 22
23 9 28 22 24 68 0 4 -13 6 -29 5 -28 -3 -29 -2 -23 35 9 57 19 87 26 85 4 -2
13 -3 21 -3 21 0 58 -68 51 -94 -5 -15 -4 -17 3 -7 12 16 27 -3 18 -24 -5 -13
20 -42 29 -33 3 2 0 20 -5 39 -6 18 -10 47 -11 64 -1 29 -1 30 -9 5 -4 -14 -8
-19 -9 -12 -2 24 -3 27 -12 39 -7 7 -6 14 1 18 13 8 4 43 -18 68 -23 26 -51
21 -63 -10 -6 -15 -13 -23 -17 -18 -4 6 -12 14 -17 19 -6 6 -4 7 7 3 17 -6 28
9 21 30 -3 8 -13 3 -28 -12 -23 -26 -42 -34 -29 -13 5 8 0 9 -15 5 -26 -6 -42
20 -20 34 8 5 10 9 6 9 -5 0 -5 5 -1 11 4 8 13 4 25 -12 l18 -24 25 24 c30 28
28 39 -3 19 -28 -17 -45 0 -26 26 12 16 17 17 31 6 13 -12 15 -12 12 2 -1 9 0
17 5 17 29 3 46 -1 63 -14 19 -15 19 -15 0 -30 -20 -15 -20 -15 0 -29 14 -11
21 -11 27 -3 5 7 7 3 4 -11 -5 -19 -3 -21 9 -11 11 9 14 8 14 -4 0 -9 4 -19
10 -22 6 -4 7 1 3 12 -11 32 4 9 21 -30 8 -21 11 -35 5 -31 -6 3 -3 -9 7 -27
12 -25 17 -54 15 -106 -1 -49 2 -73 10 -73 7 0 9 -9 5 -25 -4 -14 -3 -25 2
-25 13 0 33 -62 36 -112 2 -26 9 -54 15 -62 9 -10 9 -15 0 -18 -7 -2 -6 -8 5
-17 14 -12 16 -11 17 5 1 14 3 12 8 -6 5 -16 17 -28 39 -34 28 -8 36 -6 59 15
l26 24 -23 -32 c-22 -30 -28 -35 -46 -32 -13 1 -21 -23 -19 -52 3 -35 43 -69
82 -69 48 1 195 38 204 52 22 34 31 97 25 178 -6 71 -11 88 -29 102 -18 14
-20 20 -10 36 19 31 -15 157 -47 178 -42 29 -100 87 -100 102 0 10 7 12 24 8
19 -5 26 -1 31 14 4 12 2 27 -4 34 -9 10 -5 17 14 30 23 15 25 15 40 -8 8 -13
13 -30 9 -39 -9 -25 14 -57 42 -57 14 0 55 8 90 17 l65 17 -2 49 c-3 48 -3 49
-32 43 -17 -3 -36 -1 -43 5 -10 8 -18 9 -27 0 -8 -6 -17 -8 -20 -4 -12 11 -8
23 8 23 8 0 15 5 15 11 0 8 -14 10 -40 6 -30 -4 -40 -2 -40 9 0 8 6 14 13 14
8 0 19 11 25 25 7 15 8 25 2 25 -6 0 -13 1 -17 1 -4 1 -15 -11 -24 -27 -21
-39 -58 -51 -106 -35 -21 6 -52 10 -70 8 -27 -4 -32 0 -38 20 -5 21 -11 24
-38 21 -25 -2 -33 1 -35 16 -3 14 0 17 13 12 16 -6 16 -4 4 10 -12 15 -14 15
-22 -2 -6 -14 -20 -19 -53 -21 -25 -1 -51 -7 -59 -13 -22 -18 -60 -8 -63 18
-2 12 -7 22 -11 22 -5 0 -8 11 -8 25 -1 27 20 50 37 40 5 -3 10 1 10 10 0 12
-5 15 -17 10 -10 -4 -25 -8 -33 -8 -8 0 -18 -5 -22 -11 -5 -7 -8 -5 -8 5 0 9
10 20 23 24 12 3 17 9 10 11 -7 3 -21 0 -32 -6 -14 -7 -21 -7 -21 -1 0 7 -8 7
-24 1 -13 -4 -44 -7 -69 -5 -33 2 -47 -2 -51 -12 -8 -21 -25 -7 -19 16 4 15
-2 19 -27 23 -17 3 -34 0 -37 -5 -3 -5 -27 -6 -54 -3 -29 4 -49 3 -49 -3 0 -5
-23 -21 -51 -35 -41 -20 -56 -23 -72 -15 -16 9 -22 8 -29 -4 -5 -9 -15 -23
-23 -31 -8 -8 -15 -19 -15 -24 0 -19 -40 -44 -60 -39 -13 3 -23 0 -27 -9 -3
-9 -20 -14 -45 -14 -30 0 -41 -4 -45 -18 -3 -13 -11 -18 -27 -15 -13 3 -44 -2
-70 -11 -26 -9 -52 -14 -57 -10 -6 3 -16 1 -24 -6 -10 -8 -15 -8 -20 0 -4 6
-14 9 -22 6 -9 -4 -22 -1 -29 5 -11 9 -17 4 -30 -27 -13 -32 -17 -35 -26 -21
-5 9 -6 22 -3 27 7 11 -16 14 -90 10 -27 -1 -52 -6 -53 -11 -2 -5 -8 -7 -13
-3 -5 3 -9 -3 -9 -13 0 -24 -22 -73 -34 -73 -4 0 -6 11 -4 25 5 24 5 24 -61
19 -36 -3 -71 -10 -79 -16 -9 -8 -16 -8 -24 0 -13 13 -29 174 -18 185 4 5 108
32 231 62 123 29 303 74 400 99 206 54 240 56 273 21 23 -25 56 -34 56 -15 0
6 -8 10 -17 10 -13 0 -11 4 7 13 13 7 30 23 37 37 6 13 22 28 35 33 35 13 899
242 1538 408 240 62 789 206 965 253 155 41 155 41 155 16z m-2721 -705 c-10
-10 -22 -13 -35 -8 -17 6 -17 8 6 14 40 11 45 10 29 -6z m131 -155 c0 -5 -4
-10 -10 -10 -5 0 -10 5 -10 10 0 6 5 10 10 10 6 0 10 -4 10 -10z m290 -37 c0
-23 -8 -26 -63 -26 -16 0 -16 -1 -2 -23 9 -14 11 -25 5 -29 -6 -3 -10 0 -10 7
0 8 -9 21 -20 31 -17 14 -20 14 -20 2 0 -8 -9 -15 -20 -15 -22 0 -28 -26 -7
-33 10 -4 10 -7 0 -18 -11 -11 -13 -10 -13 6 0 18 0 18 -14 0 -12 -17 -16 -17
-30 -6 -9 8 -15 20 -12 27 4 9 -3 10 -27 3 -40 -11 -46 -11 -27 1 10 7 11 10
2 10 -7 0 -15 -7 -19 -16 -3 -8 -11 -13 -18 -10 -7 2 -16 2 -19 -2 -4 -3 -13
-7 -21 -8 -7 -1 -30 -7 -50 -14 -20 -7 -39 -9 -43 -6 -10 10 21 35 50 40 15 2
32 7 38 11 5 3 10 1 10 -6 0 -8 5 -5 13 5 8 10 30 19 52 22 22 2 41 8 43 14 3
7 10 6 23 -1 14 -7 18 -16 14 -30 -4 -13 -2 -19 9 -19 11 0 14 9 11 38 -3 20
-2 29 1 20 3 -10 10 -18 15 -18 6 0 8 4 5 8 -3 5 11 16 30 25 40 20 58 22 49
6 -4 -6 2 -5 13 2 12 7 23 22 26 34 5 17 8 18 16 5 5 -8 10 -25 10 -37z m57
-37 c11 -11 -7 -37 -19 -29 -13 8 -17 8 -53 12 -20 2 -20 2 -1 16 18 13 61 14
73 1z m193 -58 c0 -5 9 -7 19 -3 27 8 34 -9 12 -29 -11 -10 -22 -13 -25 -8 -4
6 -18 7 -34 3 -20 -6 -26 -14 -25 -29 3 -27 -2 -27 -26 -3 -19 19 -19 20 -1
36 10 9 24 14 29 10 6 -3 11 2 11 13 0 10 3 21 6 25 8 8 34 -3 34 -15z m-202
-6 c2 -7 -2 -10 -12 -6 -9 3 -16 11 -16 16 0 13 23 5 28 -10z m-485 -12 c-3
-11 -10 -20 -15 -20 -5 0 -6 5 -2 12 4 6 -3 4 -17 -5 -13 -9 -30 -17 -37 -17
-17 0 -11 22 8 28 8 3 10 0 5 -9 -4 -8 2 -4 14 9 28 28 51 29 44 2z m-90 -20
c-5 -19 -6 -20 -20 -3 -8 10 -12 13 -9 6 4 -6 2 -14 -4 -18 -5 -3 -10 3 -10
14 0 15 6 21 24 21 19 0 23 -4 19 -20z m853 -17 c-10 -10 -19 5 -10 18 6 11 8
11 12 0 2 -7 1 -15 -2 -18z m-982 6 c-4 -8 1 -9 16 -4 20 6 21 5 11 -14 -7
-12 -15 -21 -19 -21 -11 0 -32 37 -25 44 11 10 24 6 17 -5z m66 -3 c0 -8 -7
-16 -15 -20 -17 -6 -18 -4 -9 18 8 20 24 21 24 2z m370 -18 c0 -14 -16 -16
-34 -3 -25 18 -12 39 14 22 11 -6 20 -15 20 -19z m-459 1 c6 -13 7 -19 1 -15
-6 3 -13 0 -15 -6 -4 -10 -8 -9 -16 2 -9 13 -11 13 -11 -2 0 -10 -5 -18 -11
-18 -6 0 -9 10 -7 23 2 15 9 21 21 19 9 -2 17 2 17 8 0 16 8 12 21 -11z m929
-10 c0 -5 -9 -19 -20 -31 -18 -19 -20 -20 -20 -4 0 25 19 58 31 51 5 -4 9 -11
9 -16z m-1000 -9 c0 -3 -5 -12 -10 -20 -9 -13 -11 -13 -20 0 -5 8 -10 10 -10
4 0 -7 -7 -15 -16 -18 -8 -3 -12 -2 -9 4 3 6 2 10 -3 10 -6 0 -13 -7 -16 -16
-4 -9 -9 -14 -13 -11 -3 4 -11 3 -17 -2 -6 -5 -30 -12 -54 -16 -41 -6 -43 -5
-40 16 3 25 25 38 25 15 0 -8 -4 -13 -9 -10 -4 3 -8 0 -8 -5 0 -18 20 -13 28
7 4 9 16 18 27 19 11 2 30 4 42 5 13 1 24 7 27 13 4 11 76 15 76 5z m334 -17
c3 -8 4 -19 0 -24 -8 -13 -51 -11 -60 3 -5 7 -3 8 6 3 10 -6 12 -4 7 7 -7 19
-4 23 22 25 11 1 22 -5 25 -14z m-78 -25 c-2 -14 -11 -24 -23 -26 -16 -2 -20
2 -20 22 0 21 4 26 23 26 19 0 23 -5 20 -22z m-56 -13 c0 -14 -4 -25 -9 -25
-5 0 -17 -3 -25 -6 -22 -8 -17 38 4 48 26 11 30 9 30 -17z m426 -4 c-4 -6 -16
-11 -26 -11 -10 0 -30 -14 -44 -32 -14 -18 -28 -29 -32 -25 -4 4 1 16 10 26
10 11 15 25 11 30 -3 7 2 11 14 11 12 0 21 6 22 13 0 10 2 10 6 0 7 -19 23
-16 23 4 0 12 3 14 11 6 6 -6 8 -16 5 -22z m-496 -12 c0 -11 -4 -17 -10 -14
-5 3 -10 1 -10 -5 0 -6 -4 -9 -9 -6 -5 4 -11 1 -13 -6 -2 -6 -9 -8 -16 -4 -15
9 -3 38 14 32 8 -3 20 1 26 9 17 19 18 19 18 -6z m350 11 c0 -5 -5 -10 -11
-10 -5 0 -7 5 -4 10 3 6 8 10 11 10 2 0 4 -4 4 -10z m-459 -30 c11 0 12 -30 2
-31 -5 0 -16 -2 -25 -4 -13 -2 -18 3 -18 22 0 19 4 24 16 19 9 -3 20 -6 25 -6z
m34 -11 c-6 -33 -15 -36 -15 -6 0 15 4 27 9 27 6 0 8 -10 6 -21z m-458 -11
c-3 -8 -6 -5 -6 6 -1 11 2 17 5 13 3 -3 4 -12 1 -19z m363 -1 c0 -20 -9 -25
-81 -44 l-80 -21 3 21 c2 12 11 21 23 22 11 2 32 5 48 8 17 4 27 1 27 -6 0 -8
3 -7 9 2 5 8 14 10 22 6 8 -5 11 -5 7 -1 -4 5 -1 14 5 22 16 18 17 18 17 -9z
m485 3 c-20 -22 -31 -20 -22 5 4 8 14 15 23 15 16 0 16 -2 -1 -20z m310 -150
c-3 -5 -15 -10 -26 -10 -10 0 -19 5 -19 10 0 6 12 10 26 10 14 0 23 -4 19 -10z
m-380 -450 c-3 -5 -13 -10 -21 -10 -8 0 -12 5 -9 10 3 6 13 10 21 10 8 0 12
-4 9 -10z m55 -56 c0 -13 -27 -1 -38 16 -12 20 -12 21 13 4 14 -9 25 -18 25
-20z m200 -60 c0 -8 7 -14 15 -14 8 0 15 -7 15 -15 0 -8 7 -15 15 -15 9 0 15
9 15 21 0 17 3 19 13 10 8 -6 18 -7 22 -3 5 4 6 0 2 -9 -4 -13 -1 -16 13 -12
12 3 22 -3 29 -16 9 -16 8 -22 -8 -30 -14 -8 -22 -7 -31 4 -10 12 -16 12 -26
4 -8 -6 -20 -9 -28 -6 -25 10 -27 -6 -4 -30 12 -13 29 -23 39 -23 9 0 19 -4
21 -10 2 -6 16 -6 40 2 20 6 43 8 51 5 18 -7 12 -40 -11 -59 -13 -11 -14 -10
-4 9 10 18 9 20 -8 16 -11 -3 -19 -8 -18 -12 1 -3 -1 -15 -5 -27 -6 -16 -14
-20 -37 -16 -32 5 -39 22 -15 42 8 7 12 16 9 22 -3 5 -11 5 -19 -2 -9 -8 -20
-2 -43 25 -41 46 -47 44 -21 -6 11 -23 16 -38 10 -34 -6 3 -11 0 -11 -7 -1
-18 -32 53 -34 77 -1 11 -5 25 -9 32 -4 6 -2 13 4 15 8 3 6 10 -5 21 -10 9
-14 17 -9 17 4 0 1 5 -7 10 -13 9 -12 12 4 25 21 16 36 12 36 -11z m-196 -36
c-4 -24 -7 -46 -6 -50 1 -4 -5 -35 -14 -68 -14 -55 -14 -65 1 -116 9 -31 14
-62 11 -70 -3 -7 0 -11 7 -8 26 10 88 -85 106 -161 33 -136 79 -268 80 -232 1
21 20 22 48 2 18 -13 21 -22 16 -48 -3 -18 -11 -35 -16 -38 -5 -4 -7 -11 -4
-16 3 -5 2 -15 -3 -22 -5 -8 -2 -30 5 -51 10 -28 10 -41 2 -49 -14 -14 -4 -14
29 1 23 11 28 10 45 -11 27 -33 24 -48 -11 -54 -16 -4 -30 -11 -30 -17 0 -7 6
-8 19 0 14 7 22 7 26 0 8 -13 -13 -40 -30 -40 -20 0 -24 -24 -6 -37 11 -8 12
-12 4 -13 -7 0 -13 -7 -13 -15 0 -9 6 -12 18 -9 15 5 15 4 -2 -6 -14 -10 -21
-9 -35 4 -14 15 -14 18 -1 26 9 6 10 10 3 10 -6 0 -15 -4 -18 -10 -3 -5 -11
-10 -16 -10 -6 0 -7 5 -3 12 4 7 3 8 -5 4 -6 -4 -8 -12 -5 -18 4 -6 0 -14 -7
-19 -10 -6 -11 -9 -1 -9 6 0 12 -7 12 -15 0 -17 18 -19 39 -6 15 10 41 4 41
-9 0 -4 -10 -11 -22 -15 -23 -8 -23 -8 2 -12 34 -6 50 -23 22 -23 -26 0 -26 1
-9 -39 l13 -32 20 77 c18 75 37 100 55 73 8 -12 12 -11 23 4 12 15 14 16 20 2
3 -8 2 -15 -3 -15 -8 0 -71 -158 -71 -179 0 -6 4 -11 8 -11 4 0 16 -14 26 -32
l19 -32 10 25 c6 13 9 28 8 32 -1 5 3 6 8 3 13 -8 82 34 75 45 -3 5 -13 5 -25
-1 -15 -9 -20 -7 -25 7 -3 10 -11 28 -17 41 -8 16 -8 25 1 34 7 7 12 29 12 49
0 27 5 38 17 41 14 2 16 13 14 59 -2 54 -1 58 28 72 36 18 40 12 42 -65 2 -46
8 -56 22 -41 4 3 18 8 32 9 22 2 25 -1 25 -32 0 -21 4 -33 10 -29 6 4 8 10 5
15 -3 5 -1 11 5 15 6 4 8 11 5 16 -4 5 3 22 14 38 23 32 27 51 10 51 -5 0 -7
-4 -4 -10 3 -5 1 -10 -4 -10 -21 0 -11 20 18 34 16 9 31 22 34 30 4 9 13 13
21 10 8 -3 16 2 19 13 4 16 5 17 6 0 0 -9 -8 -25 -19 -34 -13 -11 -18 -24 -14
-39 6 -24 -35 -164 -48 -164 -4 0 -8 7 -8 16 0 9 -6 14 -12 11 -7 -2 -13 -16
-13 -30 0 -16 -9 -33 -23 -43 -29 -20 -39 -12 -23 22 15 33 12 36 -28 28 -23
-5 -29 -10 -22 -17 6 -6 11 -27 11 -47 0 -20 3 -40 7 -44 4 -4 8 -17 8 -29 0
-15 7 -23 22 -25 16 -2 24 4 33 32 12 36 7 56 -12 56 -5 0 -8 -7 -5 -15 7 -17
-9 -30 -18 -15 -4 6 1 20 11 31 19 21 35 25 31 7 -1 -7 3 -12 10 -13 17 0 24
-10 33 -49 5 -25 4 -36 -4 -37 -8 0 -8 -2 1 -5 7 -3 1 -15 -15 -31 -24 -25
-25 -27 -7 -33 13 -5 1 -10 -39 -18 -42 -9 -65 -20 -86 -42 -25 -26 -26 -30
-9 -30 16 0 19 -8 19 -48 0 -54 7 -67 26 -51 7 6 27 9 45 7 45 -4 69 -52 69
-139 0 -58 -3 -67 -19 -72 -27 -7 -31 0 -31 45 0 31 -5 41 -24 49 -24 11 -27
23 -13 47 5 7 3 12 -7 12 -24 0 -29 -18 -27 -100 2 -71 0 -78 -19 -83 -26 -7
-27 -4 -35 116 -5 73 -10 97 -21 97 -9 0 -14 -11 -14 -29 0 -21 -6 -32 -21
-36 -18 -6 -20 -12 -14 -48 9 -52 13 -60 31 -53 15 6 30 -36 19 -53 -18 -30
-95 1 -95 38 -1 9 -12 30 -25 46 l-25 30 0 -27 c0 -28 -32 -55 -59 -49 -7 1
-25 0 -39 -4 -24 -6 -24 -7 -8 -23 16 -16 19 -16 46 0 24 14 31 14 40 3 16
-19 -2 -49 -38 -64 -36 -15 -75 -2 -98 34 -18 28 -21 103 -4 135 8 14 7 25 -2
40 -10 16 -10 22 0 32 10 10 14 8 18 -10 13 -48 49 -9 40 42 -11 58 13 118 27
67 3 -14 11 -18 26 -14 12 3 21 1 21 -5 0 -5 9 -12 20 -15 14 -3 20 -14 20
-31 0 -14 5 -26 10 -26 6 0 10 23 10 52 0 39 3 49 11 41 9 -9 18 -3 35 23 13
19 24 39 24 44 0 16 -40 11 -46 -5 -4 -8 -10 -15 -16 -15 -5 0 -16 -7 -25 -16
-11 -11 -19 -12 -26 -5 -12 12 -69 14 -104 5 -15 -4 -21 -13 -20 -29 1 -13 -2
-24 -8 -25 -5 -1 -18 -9 -28 -17 -21 -19 -25 -16 -33 25 -6 27 -4 32 14 32 21
0 49 26 38 37 -3 3 -6 0 -6 -8 0 -12 -2 -11 -10 1 -7 11 -3 18 15 28 14 7 25
17 25 23 0 6 -8 3 -17 -7 -16 -15 -18 -15 -38 8 -11 13 -26 23 -33 20 -17 -5
-15 -22 3 -22 11 0 15 -11 15 -37 0 -20 -3 -33 -7 -30 -3 4 -11 -3 -17 -16 -8
-15 -24 -24 -51 -28 -63 -8 -83 -24 -92 -71 -10 -50 -33 -60 -53 -23 -10 19
-21 25 -46 25 -18 0 -36 5 -39 10 -4 6 6 10 22 10 25 1 73 29 73 44 0 3 -12 6
-27 6 l-28 0 28 19 c25 16 26 19 12 31 -14 11 -16 11 -13 -1 4 -17 -33 -13
-44 4 -4 7 -8 -12 -8 -40 0 -46 -3 -53 -22 -57 -69 -14 -87 -14 -92 -3 -2 7
-5 5 -5 -4 -1 -9 -12 -19 -26 -21 -20 -4 -25 -1 -26 16 -2 20 -2 20 -6 -1 -2
-13 -10 -23 -17 -23 -6 0 -18 -6 -25 -12 -6 -7 -24 -13 -38 -13 -15 0 -28 -7
-30 -15 -4 -12 -3 -12 5 -1 12 17 18 7 27 -45 4 -26 2 -44 -4 -49 -6 -3 -11
-14 -11 -23 0 -13 2 -13 15 4 8 10 15 29 15 42 0 17 6 22 25 22 22 0 25 -4 25
-35 0 -33 2 -35 25 -29 23 6 25 3 25 -25 0 -24 -4 -31 -20 -31 -22 0 -24 -11
-13 -73 5 -31 9 -38 24 -34 12 3 19 0 19 -9 0 -8 7 -14 15 -14 28 0 15 -18
-20 -30 -29 -10 -40 -9 -59 3 -20 14 -23 13 -34 -4 -23 -36 -42 -23 -43 29 -1
45 -1 45 -9 14 -13 -56 -31 -55 -50 4 -10 30 -9 38 6 55 20 22 12 38 -11 19
-23 -19 -30 -4 -17 35 7 18 10 45 6 59 -3 15 -2 32 4 39 6 6 8 24 5 40 -4 21
-11 27 -32 27 -28 1 -65 23 -54 33 3 4 19 7 35 7 15 0 28 5 28 11 0 6 -9 9
-20 6 -13 -3 -20 0 -20 9 0 8 -5 14 -11 14 -6 0 -20 12 -31 26 l-20 25 -15
-21 c-10 -14 -11 -25 -5 -33 11 -14 12 -97 1 -97 -4 0 -5 -9 -2 -20 3 -11 8
-18 12 -16 3 2 6 -20 5 -50 0 -29 2 -51 6 -49 3 2 6 -44 5 -102 0 -77 4 -108
13 -110 7 -3 12 -23 12 -51 0 -34 -3 -43 -10 -32 -5 8 -10 27 -10 42 0 20 -4
26 -15 22 -11 -5 -15 1 -15 22 -1 28 -1 28 -15 10 -18 -23 -16 -24 -60 48
l-34 57 19 36 c12 23 17 46 13 68 -3 18 -1 35 5 38 5 4 7 18 4 32 -4 23 -8 25
-61 25 -31 0 -62 -5 -69 -12 -9 -9 -12 -5 -14 18 -4 68 -7 102 -12 159 -3 33
-10 116 -16 185 -5 69 -12 148 -15 175 -8 89 -25 294 -45 550 -11 138 -25 303
-31 368 -6 67 -7 122 -3 126 5 4 50 13 99 20 50 6 95 18 100 24 6 7 19 13 30
13 11 0 65 8 120 17 55 9 154 24 220 33 125 16 338 51 367 60 9 3 20 19 23 35
10 46 18 26 9 -23z m93 -20 c-3 -8 -6 -5 -6 6 -1 11 2 17 5 13 3 -3 4 -12 1
-19z m326 -2 c23 -18 22 -25 -10 -37 -56 -22 -64 -20 -57 9 4 15 9 30 11 35 7
11 36 8 56 -7z m-323 -25 c0 -5 -7 -11 -15 -15 -9 -3 -15 0 -15 9 0 8 7 15 15
15 8 0 15 -4 15 -9z m50 -66 c4 3 10 -2 14 -10 3 -8 1 -15 -4 -15 -12 0 -60
52 -60 65 0 5 10 -2 21 -18 11 -15 24 -25 29 -22z m275 35 c3 -6 -1 -7 -9 -4
-18 7 -21 14 -7 14 6 0 13 -4 16 -10z m-245 -80 c0 -5 -5 -10 -11 -10 -5 0 -7
5 -4 10 3 6 8 10 11 10 2 0 4 -4 4 -10z m294 -5 c-4 -8 -10 -15 -16 -15 -5 0
-7 -4 -4 -9 3 -5 -1 -12 -10 -15 -9 -4 -13 -13 -10 -24 4 -12 -3 -26 -19 -40
l-25 -22 0 35 c0 26 -3 33 -15 29 -21 -9 -19 8 4 28 47 40 105 60 95 33z
m-354 -20 c7 -8 9 -15 4 -15 -5 0 -3 -4 4 -9 11 -6 9 -9 -6 -13 -16 -5 -21 0
-24 23 -5 32 3 37 22 14z m387 -36 l-14 -34 0 29 c0 16 5 35 11 42 17 19 19 0
3 -37z m251 4 c-15 -15 -16 -15 -13 3 2 10 4 23 4 29 1 5 6 4 13 -3 10 -9 9
-16 -4 -29z m207 -52 c-5 -18 -33 -36 -42 -28 -2 2 3 17 12 33 9 18 11 32 5
38 -6 6 -10 14 -10 19 0 5 9 -2 21 -17 12 -16 18 -33 14 -45z m-875 18 c0 -11
-27 -12 -34 0 -3 4 -3 11 0 14 8 8 34 -3 34 -14z m454 -24 c-4 -8 -8 -15 -10
-15 -2 0 -4 7 -4 15 0 8 4 15 10 15 5 0 7 -7 4 -15z m440 -31 c3 -8 2 -12 -4
-9 -6 3 -10 10 -10 16 0 14 7 11 14 -7z m-764 -4 c0 -5 -5 -10 -11 -10 -5 0
-7 5 -4 10 3 6 8 10 11 10 2 0 4 -4 4 -10z m497 -22 c-3 -7 -5 -2 -5 12 0 14
2 19 5 13 2 -7 2 -19 0 -25z m-207 3 c0 -15 5 -18 21 -14 18 5 20 3 11 -13 -5
-10 -7 -25 -5 -31 3 -7 -2 -16 -11 -19 -9 -3 -16 -15 -16 -25 0 -10 -4 -19
-10 -19 -5 0 -10 9 -10 21 0 11 -4 17 -10 14 -6 -4 -7 2 -1 18 5 13 9 30 9 38
-2 31 3 49 12 49 6 0 10 -9 10 -19z m-393 -13 c-3 -8 -6 -5 -6 6 -1 11 2 17 5
13 3 -3 4 -12 1 -19z m348 -20 c-2 -18 -3 -39 -4 -46 -1 -7 -6 -10 -12 -6 -8
4 -8 9 0 17 17 17 13 25 -11 21 -15 -3 -18 -2 -8 3 8 5 15 14 16 21 2 28 4 33
13 28 5 -3 7 -20 6 -38z m-254 -5 c-12 -20 -14 -14 -5 12 4 9 9 14 11 11 3 -2
0 -13 -6 -23z m763 12 c-4 -8 -11 -15 -16 -15 -6 0 -5 6 2 15 7 8 14 15 16 15
2 0 1 -7 -2 -15z m-24 -27 c0 -5 -7 -8 -15 -8 -15 0 -20 21 -8 33 7 7 23 -11
23 -25z m-346 -4 c20 -19 21 -44 2 -44 -8 0 -16 13 -18 30 -5 35 -5 35 16 14z
m220 1 c3 -8 1 -15 -4 -15 -6 0 -10 7 -10 15 0 8 2 15 4 15 2 0 6 -7 10 -15z
m-644 -27 c5 -13 9 -17 9 -10 1 6 6 12 12 12 5 0 8 -4 5 -9 -4 -5 -1 -11 6
-13 8 -3 6 -6 -4 -10 -10 -4 -25 4 -42 23 -19 21 -22 29 -11 29 9 0 20 -10 25
-22z m2584 -3 c-4 -8 -8 -15 -10 -15 -2 0 -4 7 -4 15 0 8 4 15 10 15 5 0 7 -7
4 -15z m104 3 c-2 -6 -10 -13 -16 -14 -7 -1 -8 0 -2 3 5 2 8 9 4 14 -3 5 0 9
6 9 7 0 10 -5 8 -12z m-1897 -30 c0 -7 2 -21 4 -30 3 -14 0 -15 -16 -5 -10 6
-19 17 -19 23 0 23 29 34 31 12z m-826 -8 c3 -6 -1 -7 -9 -4 -18 7 -21 14 -7
14 6 0 13 -4 16 -10z m89 -36 c9 -8 20 -13 25 -10 5 3 17 -5 27 -19 10 -13 22
-21 28 -18 5 4 1 -6 -10 -20 -10 -15 -22 -27 -26 -27 -4 0 -5 -6 -2 -14 3 -8
-5 -21 -17 -29 -21 -15 -23 -14 -59 31 -37 47 -60 85 -60 97 0 4 11 4 24 1 16
-4 26 -1 30 9 7 19 21 19 40 -1z m2634 -58 c-24 -36 -33 -36 -79 -5 -14 10
-29 16 -33 12 -3 -3 -6 -1 -6 5 0 16 33 15 48 0 9 -9 12 -9 12 0 0 7 7 12 16
12 9 0 12 -5 8 -12 -4 -6 3 -4 17 5 36 26 41 20 17 -17z m-2038 -12 c0 -8 -4
-12 -10 -9 -5 3 -10 13 -10 21 0 8 5 12 10 9 6 -3 10 -13 10 -21z m1845 15
c11 -16 1 -19 -13 -3 -7 8 -8 14 -3 14 5 0 13 -5 16 -11z m-1885 -31 c0 -18
-2 -20 -9 -8 -6 8 -7 18 -5 22 9 14 14 9 14 -14z m139 -7 c11 -11 22 -17 24
-14 3 2 10 -4 16 -15 9 -17 7 -19 -14 -19 -14 0 -25 5 -25 11 0 7 -9 22 -20
34 -25 27 -7 29 19 3z m-359 -9 c0 -13 -12 -22 -22 -16 -10 6 -1 24 13 24 5 0
9 -4 9 -8z m80 -13 c0 -6 -4 -7 -10 -4 -5 3 -10 11 -10 16 0 6 5 7 10 4 6 -3
10 -11 10 -16z m190 5 c0 -2 -7 -4 -15 -4 -8 0 -15 4 -15 10 0 5 7 7 15 4 8
-4 15 -8 15 -10z m-470 -4 c0 -5 -4 -10 -10 -10 -5 0 -10 5 -10 10 0 6 5 10
10 10 6 0 10 -4 10 -10z m377 -22 c-3 -8 -6 -5 -6 6 -1 11 2 17 5 13 3 -3 4
-12 1 -19z m-177 -18 c0 -14 -28 -1 -34 16 -4 12 -2 12 14 4 11 -6 20 -15 20
-20z m150 20 c0 -12 -28 -25 -36 -17 -9 9 6 27 22 27 8 0 14 -5 14 -10z m75
-40 c-9 -14 -25 5 -25 30 0 12 3 12 16 -2 9 -9 13 -21 9 -28z m1360 31 c3 -5
1 -12 -5 -16 -5 -3 -10 1 -10 9 0 18 6 21 15 7z m235 5 c0 -3 -4 -8 -10 -11
-5 -3 -10 -1 -10 4 0 6 5 11 10 11 6 0 10 -2 10 -4z m-494 -14 c-2 -4 5 -14
16 -21 19 -12 20 -11 15 8 -4 17 -2 19 13 11 13 -7 20 -6 23 3 3 7 6 5 6 -5 1
-10 6 -18 11 -18 6 0 10 -7 10 -16 0 -8 -4 -12 -10 -9 -5 3 -10 2 -10 -2 0 -5
-9 -14 -20 -21 -17 -10 -23 -10 -35 2 -19 18 -36 62 -28 70 9 9 15 7 9 -2z
m454 -8 c-3 -5 -8 -8 -12 -6 -5 1 -8 -2 -8 -7 0 -5 -11 -8 -25 -8 -13 0 -22 3
-19 8 3 5 12 9 20 9 8 0 14 4 14 9 0 5 8 8 18 7 9 -2 15 -7 12 -12z m352 -16
c-7 -7 -10 -5 -7 8 5 29 6 30 12 16 3 -8 1 -18 -5 -24z m128 13 c0 -11 -15
-27 -30 -33 -11 -4 -15 2 -15 21 0 23 4 27 23 23 12 -2 22 -7 22 -11z m-2237
-13 c-5 -7 -9 -41 -7 -76 2 -54 0 -61 -12 -51 -9 7 -13 26 -12 47 1 20 -3 37
-9 39 -7 3 -9 11 -6 19 3 8 0 14 -6 14 -6 0 -11 4 -11 10 0 6 9 6 25 0 20 -8
27 -6 32 6 3 8 8 13 11 10 3 -3 0 -11 -5 -18z m1287 -13 c0 -5 -5 -3 -10 5 -5
8 -10 20 -10 25 0 6 5 3 10 -5 5 -8 10 -19 10 -25z m135 17 c-3 -3 -11 0 -18
7 -9 10 -8 11 6 5 10 -3 15 -9 12 -12z m655 8 c0 -5 -2 -10 -4 -10 -3 0 -8 5
-11 10 -3 6 -1 10 4 10 6 0 11 -4 11 -10z m213 -42 c22 -13 0 -18 -26 -5 -28
13 -38 33 -11 23 8 -3 12 -2 9 4 -3 6 -3 16 2 23 5 8 9 4 11 -13 2 -14 9 -28
15 -32z m-2500 27 c4 -8 3 -16 -1 -19 -4 -3 -9 4 -9 15 -2 23 3 25 10 4z m271
-15 c20 0 15 -29 -6 -36 -23 -7 -27 -4 -33 26 -6 30 5 47 17 26 5 -9 15 -16
22 -16z m2122 18 c4 -7 3 -8 -4 -4 -7 4 -12 2 -12 -4 0 -6 -5 -8 -10 -5 -11 7
-4 25 10 25 5 0 12 -5 16 -12z m-2421 -8 c3 -5 1 -10 -4 -10 -6 0 -11 5 -11
10 0 6 2 10 4 10 3 0 8 -4 11 -10z m1745 -10 c7 -14 7 -20 0 -20 -5 0 -10 8
-11 18 0 14 -2 14 -9 -3 -5 -11 -9 -14 -9 -7 -1 7 -7 10 -13 7 -7 -4 -4 1 6 9
25 20 23 20 36 -4z m-1652 -20 c-1 -35 -18 -54 -33 -36 -12 14 -20 44 -9 34 4
-5 13 1 21 12 19 27 22 25 21 -10z m1952 26 c0 -2 -7 -9 -15 -16 -13 -11 -14
-10 -9 4 5 14 24 23 24 12z m-137 -48 c3 -10 0 -18 -5 -18 -6 0 -5 -6 2 -15 7
-8 10 -15 7 -15 -3 0 -12 -3 -20 -6 -12 -4 -14 0 -10 15 4 17 2 20 -12 15 -11
-5 -15 -14 -11 -29 4 -15 1 -22 -9 -22 -8 0 -12 4 -10 7 7 11 -28 46 -42 44
-7 -1 -20 -2 -28 -3 -15 -1 -21 -41 -8 -55 4 -3 8 -13 9 -21 2 -12 -2 -12 -17
-5 -10 6 -19 17 -19 25 0 8 -8 16 -17 16 -58 5 -71 4 -69 -1 2 -3 0 -14 -5
-25 -6 -16 -8 -14 -8 13 -1 21 -6 32 -16 32 -8 0 -12 -6 -9 -13 2 -7 -4 -24
-16 -37 l-20 -23 0 25 c0 14 7 31 15 38 17 14 21 35 5 25 -6 -4 -7 1 -3 11 6
15 7 15 18 1 9 -12 14 -14 23 -5 9 9 12 9 12 0 0 -16 27 -15 33 1 3 9 7 9 20
-2 15 -12 17 -11 17 5 0 16 2 16 10 4 8 -12 10 -12 16 3 3 9 10 15 14 12 5 -3
13 3 19 12 6 11 11 13 11 5 0 -7 4 -11 9 -8 5 4 11 1 13 -5 2 -5 16 -12 31
-13 21 -3 25 -1 16 10 -8 10 -7 17 3 27 15 17 44 3 51 -25z m91 18 c-3 -9 -10
-13 -15 -10 -5 3 -3 11 4 19 15 16 19 13 11 -9z m-1989 4 c3 -6 -1 -13 -10
-16 -19 -8 -30 0 -20 15 8 14 22 14 30 1z m732 -12 c-3 -8 -6 -5 -6 6 -1 11 2
17 5 13 3 -3 4 -12 1 -19z m1222 -5 c10 -21 9 -23 -8 -14 -10 6 -22 7 -26 3
-5 -4 -5 -1 -1 6 4 6 2 12 -3 12 -6 0 -11 4 -11 8 0 18 40 6 49 -15z m-439
-17 c0 -8 -9 -18 -20 -21 -11 -3 -20 -13 -20 -20 0 -8 -5 -25 -11 -39 -10 -21
-15 -23 -30 -15 -15 8 -19 6 -20 -8 0 -11 -3 -13 -6 -5 -2 6 -12 12 -22 12
-20 0 -23 37 -3 45 9 3 12 -1 7 -15 -4 -11 -2 -20 3 -20 11 0 24 28 18 39 -3
4 4 12 15 19 11 7 19 8 19 2 0 -5 7 -7 15 -4 8 4 15 12 15 19 0 8 8 16 18 18
9 3 18 5 20 6 1 0 2 -5 2 -13z m721 -9 c-10 -9 -11 -8 -5 6 3 10 9 15 12 12 3
-3 0 -11 -7 -18z m-1491 3 c0 -5 -7 -10 -16 -10 -8 0 -12 5 -9 10 3 6 10 10
16 10 5 0 9 -4 9 -10z m1185 -9 c3 -5 1 -12 -5 -16 -5 -3 -10 1 -10 9 0 18 6
21 15 7z m-381 -32 c8 -9 8 -10 -1 -5 -16 9 -16 1 -2 -26 10 -19 9 -20 -12
-15 -13 4 -33 7 -44 7 -14 0 -16 3 -7 9 7 4 14 17 15 28 1 23 31 24 51 2z
m251 1 c18 -20 18 -20 -8 -18 -15 1 -27 3 -27 4 0 5 12 34 15 34 1 0 10 -9 20
-20z m106 -27 c12 -16 12 -17 -2 -6 -9 7 -20 9 -24 5 -5 -4 -5 -1 -1 6 9 16
11 15 27 -5z m-1636 -13 c3 -5 -3 -10 -15 -10 -12 0 -18 5 -15 10 3 6 10 10
15 10 5 0 12 -4 15 -10z m1415 -5 c0 -13 -4 -14 -20 -5 -11 6 -20 13 -20 15 0
3 9 5 20 5 11 0 20 -7 20 -15z m760 -14 c30 2 55 -1 57 -7 4 -11 -145 -10
-155 1 -4 5 -1 5 6 1 7 -4 15 -1 18 9 5 12 9 13 14 5 4 -7 28 -11 60 -9z
m-2060 -12 c0 -6 -4 -7 -10 -4 -5 3 -10 11 -10 16 0 6 5 7 10 4 6 -3 10 -11
10 -16z m1794 -10 c-3 -5 -9 -7 -14 -4 -5 3 -12 0 -16 -6 -4 -8 3 -9 25 -4 17
4 31 3 31 -3 0 -5 12 -7 26 -4 l27 5 -24 14 c-17 10 -18 12 -4 7 11 -4 32 -9
47 -12 15 -2 26 -8 23 -12 -3 -4 15 -11 40 -14 45 -7 67 -21 37 -23 -37 -2
-65 -13 -78 -30 -9 -12 -13 -13 -14 -5 0 7 -4 10 -10 7 -5 -3 -10 1 -10 9 0 9
-5 16 -11 16 -5 0 -8 -4 -5 -9 4 -5 3 -16 0 -25 -5 -13 -11 -10 -36 14 -29 29
-68 40 -68 20 0 -5 -7 -10 -16 -10 -8 0 -12 -4 -9 -10 3 -5 -1 -10 -10 -10 -9
0 -19 -9 -22 -20 -3 -11 -10 -20 -15 -20 -5 0 -7 -3 -5 -7 3 -5 -18 -7 -46 -7
-29 1 -59 -2 -67 -6 -16 -9 -89 23 -74 32 5 3 45 11 89 18 100 16 126 29 55
27 -42 -2 -55 1 -55 12 0 8 6 15 13 17 7 1 8 0 2 -3 -5 -2 -10 -9 -10 -14 0
-6 8 -5 20 1 11 6 17 16 14 25 -8 20 2 19 42 -5 20 -13 35 -17 39 -10 3 5 18
10 33 11 16 0 21 3 12 6 -8 3 -17 10 -20 14 -4 5 -22 12 -40 16 -32 6 -34 5
-21 -10 16 -21 2 -22 -24 -3 -18 13 -17 15 20 21 22 4 44 7 48 9 22 5 86 -7
81 -15z m-677 -16 c0 -9 -4 -10 -14 -2 -7 6 -13 12 -13 14 0 1 6 2 13 2 8 0
14 -6 14 -14z m474 0 c13 -16 12 -17 -3 -5 -18 14 -58 8 -58 -9 0 -6 -10 -4
-22 3 l-23 12 25 7 c43 12 67 10 81 -8z m-1871 -25 c0 -5 -9 -8 -20 -8 -22 0
-28 26 -7 33 12 4 27 -10 27 -25z m80 -8 c0 -13 -1 -13 -10 0 -5 8 -10 22 -10
30 0 13 1 13 10 0 5 -8 10 -22 10 -30z m1671 27 c-4 -4 -17 -9 -28 -10 -11 0
-25 -7 -31 -13 -12 -13 4 -30 54 -60 10 -6 14 -13 8 -16 -5 -3 -34 19 -64 49
-30 31 -50 53 -43 49 6 -3 21 -2 34 2 29 11 81 10 70 -1z m-210 -8 c11 -5 17
-13 15 -17 -8 -13 40 -8 57 6 14 12 15 11 4 -11 -6 -14 -17 -22 -24 -20 -7 3
-13 1 -13 -5 0 -5 -16 -12 -35 -14 -28 -3 -35 -1 -35 13 0 26 -52 34 -90 14
-47 -24 -63 -25 -91 -4 -19 15 -20 19 -7 19 9 0 20 -5 23 -10 9 -14 55 -7 65
10 5 8 12 11 16 8 4 -4 16 -1 28 7 24 18 59 19 87 4z m312 -19 c-3 -11 -9 -17
-14 -14 -14 8 -10 34 5 34 9 0 12 -7 9 -20z m-1761 -22 c-8 -8 -9 -4 -5 13 4
13 8 18 11 10 2 -7 -1 -18 -6 -23z m78 -13 c0 -19 -34 4 -37 25 l-4 24 21 -21
c11 -12 20 -25 20 -28z m54 29 c5 -14 4 -15 -9 -4 -17 14 -19 20 -6 20 5 0 12
-7 15 -16z m-254 -8 c0 -2 -9 -6 -20 -9 -11 -3 -18 -1 -14 4 5 9 34 13 34 5z
m1514 -21 c11 -8 16 -15 10 -15 -5 0 -19 -3 -31 -6 -14 -4 -23 -2 -23 5 0 6 8
11 18 11 14 0 15 2 2 10 -8 5 -10 10 -5 10 6 -1 19 -7 29 -15z m107 -28 c-10
-9 -11 -8 -5 6 3 10 9 15 12 12 3 -3 0 -11 -7 -18z m839 2 c14 -26 6 -51 -14
-43 -28 11 -32 64 -6 64 5 0 14 -9 20 -21z m-140 -6 c0 -25 -16 -47 -28 -39
-7 4 -6 14 1 31 14 29 27 33 27 8z m-2298 -25 c-7 -7 -12 -8 -12 -2 0 14 12
26 19 19 2 -3 -1 -11 -7 -17z m95 0 c-3 -8 -6 -5 -6 6 -1 11 2 17 5 13 3 -3 4
-12 1 -19z m2066 -15 l-5 -28 20 24 c24 30 42 20 42 -25 0 -19 5 -34 10 -34
13 0 13 -27 0 -35 -6 -3 -16 0 -24 8 -8 7 -27 24 -43 38 -36 30 -48 59 -31 71
25 15 35 8 31 -19z m-598 -13 c-10 -11 -22 -17 -27 -14 -5 4 1 12 14 19 32 18
34 18 13 -5z m-1451 -5 c3 -8 1 -15 -4 -15 -6 0 -10 7 -10 15 0 8 2 15 4 15 2
0 6 -7 10 -15z m1341 -15 c3 -5 1 -10 -4 -10 -6 0 -11 5 -11 10 0 6 2 10 4 10
3 0 8 -4 11 -10z m510 -81 c-16 -30 -16 -34 -1 -44 20 -15 20 -35 2 -60 -13
-18 -14 -18 -26 4 -6 13 -10 31 -7 41 3 12 0 17 -8 14 -6 -3 -18 2 -25 11 -10
12 -10 21 0 45 7 16 10 39 7 49 -8 31 15 31 46 1 28 -28 28 -28 12 -61z m481
66 c9 -36 -1 -55 -34 -61 -15 -3 -32 -15 -37 -27 -15 -31 -33 -32 -41 -1 -5
19 -2 30 10 39 9 7 16 16 16 21 0 22 33 54 55 54 18 0 26 -7 31 -25z m-685 -6
c-18 -14 -32 -18 -56 -13 -18 3 -35 2 -38 -3 -3 -5 -23 -7 -44 -4 l-38 4 35
10 c34 8 119 23 150 25 10 1 7 -5 -9 -19z m339 0 c0 -5 -4 -9 -10 -9 -5 0 -10
7 -10 16 0 8 5 12 10 9 6 -3 10 -10 10 -16z m-527 -8 c4 -4 -7 -6 -25 -5 -29
3 -30 3 -8 -4 25 -8 24 -9 -7 -13 -18 -3 -35 -1 -38 5 -3 7 -7 7 -11 -1 -9
-19 -23 -16 -19 5 2 9 4 20 4 24 1 9 94 -1 104 -11z m265 -32 c4 -43 -26 -86
-51 -76 -13 5 -17 19 -17 55 0 56 5 64 40 60 21 -3 25 -9 28 -39z m310 -28
c18 -11 11 -56 -8 -56 -10 0 -16 12 -18 33 -3 33 3 38 26 23z m-888 -36 c0 -2
-10 -9 -22 -15 -22 -11 -22 -10 -4 4 21 17 26 19 26 11z m983 -17 c7 -26 -11
-108 -24 -108 -5 0 -9 -6 -9 -12 -1 -17 -35 -58 -49 -58 -18 0 -13 53 9 95 11
22 20 44 20 50 0 14 29 55 39 55 5 0 11 -10 14 -22z m-935 -10 c-4 -27 -33
-36 -42 -13 -8 22 1 35 25 35 15 0 20 -6 17 -22z m462 -38 c0 -5 8 -10 19 -10
25 0 39 -19 43 -60 4 -41 34 -60 105 -65 44 -3 63 -15 63 -44 0 -8 -7 -11 -19
-8 -10 2 -25 0 -34 -5 -12 -6 -25 -3 -44 11 -49 34 -77 34 -96 2 -9 -15 -14
-31 -11 -34 3 -3 -19 1 -49 9 -48 12 -60 12 -97 -1 -55 -19 -124 -75 -140
-114 -7 -17 -21 -32 -33 -34 -19 -4 -19 -4 4 -6 14 0 34 -8 45 -17 18 -15 18
-15 -3 -5 -34 17 -59 13 -92 -15 -38 -32 -41 -22 -3 13 15 15 21 23 14 19 -8
-5 -19 -1 -27 10 -13 18 -15 17 -29 -18 -19 -43 -26 -49 -53 -42 -14 4 -29 25
-44 61 -12 30 -28 57 -36 60 -18 7 -16 50 3 57 10 4 18 0 21 -13 9 -34 50 -35
92 -2 39 31 47 32 95 12 35 -14 56 -8 63 19 3 11 14 20 24 20 11 0 19 4 19 9
0 5 16 19 35 31 38 24 55 48 64 94 4 16 15 34 26 40 11 6 24 17 28 24 10 14
47 16 47 2z m265 -89 c-9 -16 -25 -3 -18 15 4 10 9 12 15 6 6 -6 7 -15 3 -21z
m-767 -37 c40 -24 53 -46 32 -59 -5 -3 -7 -12 -3 -20 4 -12 -3 -15 -32 -15
-20 0 -34 -4 -30 -9 3 -5 0 -13 -6 -17 -6 -3 -14 -2 -18 5 -7 11 -39 15 -76 9
-28 -4 -32 35 -6 71 12 16 21 34 21 40 0 16 33 31 55 25 11 -4 39 -17 63 -30z
m235 -20 c-8 -22 -23 -6 -23 24 1 25 2 26 15 9 7 -11 11 -25 8 -33z m837 12
c0 -8 -4 -17 -9 -21 -12 -7 -24 12 -16 25 9 15 25 12 25 -4z m-2085 -37 c-4
-5 -13 -9 -22 -9 -13 0 -13 3 -3 15 13 15 35 11 25 -6z m1148 -19 c-6 -22 -11
-24 -33 -10 -13 9 -13 11 0 20 24 16 39 12 33 -10z m465 -48 c30 -26 32 -30
16 -42 -14 -13 -20 -10 -45 18 -16 18 -27 37 -24 42 9 15 17 12 53 -18z m47 8
c-3 -5 -11 -10 -16 -10 -6 0 -7 5 -4 10 3 6 11 10 16 10 6 0 7 -4 4 -10z
m-1448 -35 c19 -19 33 -30 30 -23 -3 8 6 14 24 15 25 2 29 -1 29 -25 0 -19 -7
-30 -22 -37 -22 -9 -23 -15 -20 -93 4 -82 4 -82 -22 -82 -27 0 -26 -2 -41 142
-5 45 -11 60 -31 72 -23 16 -32 45 -17 59 14 15 36 6 70 -28z m171 13 c7 -7
12 -20 12 -30 0 -10 4 -18 9 -18 13 0 34 -57 26 -70 -4 -6 -2 -17 4 -23 18
-22 1 -54 -34 -65 -37 -11 -40 -9 -64 39 -11 23 -11 30 4 53 15 23 16 32 6 67
-7 22 -9 44 -6 49 8 14 28 13 43 -2z m552 -63 c0 -9 8 -19 18 -22 22 -9 51
-44 52 -63 0 -13 -1 -13 -10 0 -5 8 -10 11 -10 6 0 -5 -7 -3 -15 4 -11 9 -9
-1 6 -35 15 -34 19 -57 14 -83 -5 -26 -9 -32 -16 -21 -10 16 -12 6 -10 -41 1
-20 -3 -16 -21 19 -17 35 -24 41 -32 30 -12 -16 -30 -18 -42 -6 -11 11 -64 9
-64 -3 0 -5 14 -10 30 -10 22 0 30 -5 30 -17 0 -25 -64 -24 -68 2 -3 14 -7 12
-21 -11 -19 -33 -28 -99 -11 -89 5 3 10 13 10 21 0 8 5 12 10 9 6 -3 10 1 10
9 0 8 9 20 20 26 15 8 24 6 40 -10 l20 -20 -32 -7 -33 -7 30 -6 c23 -4 29 -11
27 -25 -1 -11 -5 -45 -9 -75 -3 -30 -12 -69 -19 -86 -13 -31 -98 -114 -117
-114 -5 0 -4 -7 3 -15 7 -9 8 -15 2 -15 -5 0 -13 -7 -16 -16 -7 -19 40 -60 65
-56 10 2 20 -5 24 -18 4 -13 15 -20 31 -20 13 0 24 -3 24 -7 -1 -16 -29 -45
-38 -39 -6 4 -6 -6 1 -24 14 -36 22 -38 34 -7 4 12 24 48 43 80 35 57 62 72
74 41 11 -28 7 -34 -18 -24 -23 8 -27 5 -56 -51 -17 -33 -40 -75 -51 -92 -10
-18 -19 -48 -18 -67 l1 -35 10 28 c5 15 13 27 16 28 34 4 50 12 70 34 l22 26
0 -33 c0 -25 3 -29 10 -18 5 8 10 25 10 38 0 38 20 24 21 -15 1 -27 3 -30 6
-13 8 51 11 53 43 30 16 -12 30 -17 30 -11 0 5 -15 20 -32 32 -18 12 -34 24
-36 25 -2 1 3 11 10 23 15 24 36 27 44 7 3 -8 14 -16 25 -19 15 -4 17 -2 9 12
-5 10 -16 23 -24 31 -20 15 -20 27 -2 45 10 10 16 11 25 2 6 -6 11 -14 11 -19
0 -4 11 -18 25 -32 l25 -25 -6 27 c-4 15 -15 36 -25 48 -11 11 -19 26 -19 33
0 24 25 4 64 -50 24 -34 35 -45 31 -29 -4 14 -12 31 -18 38 -5 7 -8 15 -5 18
6 6 28 -27 53 -79 12 -26 16 -49 11 -77 -6 -37 -4 -42 41 -85 27 -25 83 -68
125 -96 72 -47 84 -51 164 -59 48 -5 92 -14 98 -20 5 -5 21 -10 34 -10 25 0
92 -36 92 -48 0 -4 -12 -25 -26 -46 -21 -30 -24 -43 -16 -56 8 -13 6 -24 -7
-43 -19 -30 -66 -69 -73 -61 -3 3 -18 7 -34 10 -16 3 -32 10 -35 16 -4 6 -15
12 -26 13 -10 1 -31 8 -48 15 -16 6 -41 13 -55 13 -17 2 -53 30 -111 88 -48
48 -94 98 -103 111 -9 13 -33 34 -55 45 l-39 21 10 -29 c5 -16 16 -29 24 -29
9 0 14 -12 14 -36 0 -19 3 -33 8 -30 4 2 16 -14 27 -36 16 -34 17 -41 4 -49
-11 -7 -11 -9 4 -9 9 0 17 -2 17 -4 0 -2 3 -11 6 -19 3 -10 -8 -21 -36 -36
-22 -11 -42 -21 -44 -21 -10 0 -12 51 -2 61 6 7 7 9 1 6 -6 -3 -10 25 -10 77
0 57 -4 88 -14 100 -13 15 -15 16 -23 2 -5 -9 -10 -43 -11 -76 -1 -46 -4 -59
-15 -55 -10 4 -11 -1 -6 -18 4 -12 11 -23 15 -25 5 -2 9 -15 9 -29 0 -25 -1
-25 -18 -10 -26 24 -33 21 -26 -8 4 -16 2 -25 -6 -25 -6 0 -8 4 -5 10 3 5 0 7
-8 4 -8 -3 -21 3 -28 13 -18 24 -50 38 -43 18 3 -7 12 -16 19 -19 8 -3 11 -13
8 -25 -3 -12 -1 -21 5 -21 6 0 14 -9 17 -20 3 -11 11 -20 16 -20 6 0 6 7 -1
19 -12 24 -13 31 -1 31 5 0 13 -18 19 -40 9 -35 8 -39 -4 -29 -11 9 -14 9 -14
0 0 -19 30 -72 38 -67 4 2 8 -12 9 -32 1 -21 5 -55 8 -77 3 -22 6 -62 7 -90 0
-27 5 -56 10 -62 6 -7 8 -19 5 -27 -3 -8 -1 -17 6 -20 8 -3 6 -8 -5 -16 -10
-6 -18 -15 -18 -20 0 -5 8 -10 18 -13 12 -3 8 -8 -18 -17 l-34 -13 44 -20 c39
-18 42 -21 22 -25 -13 -2 -36 1 -51 8 -15 6 -32 10 -37 9 -23 -4 -43 3 -64 21
-13 11 -29 20 -36 20 -8 0 -11 6 -8 15 4 8 -1 17 -10 21 -9 3 -16 12 -16 20 0
8 -5 14 -11 14 -6 0 -9 8 -7 18 3 10 0 23 -6 29 -21 20 -44 51 -56 73 -9 17
-14 19 -26 9 -12 -10 -20 -7 -42 13 -35 33 -72 52 -72 38 0 -5 4 -10 9 -10 13
0 81 -65 81 -78 0 -16 -8 -15 -26 3 -9 8 -23 15 -32 15 -23 1 -55 26 -48 38 8
14 -41 25 -60 14 -13 -7 -8 -16 30 -47 30 -24 43 -42 37 -48 -16 -16 -66 2
-83 30 l-15 26 -22 -22 c-27 -27 -51 -21 -51 13 0 19 -4 23 -20 19 -11 -3 -20
-12 -20 -19 0 -8 -5 -14 -11 -14 -6 0 -9 6 -6 14 8 20 -4 28 -20 15 -16 -14
-16 -11 -2 30 7 20 20 33 35 37 34 9 30 24 -6 24 -34 0 -45 -24 -44 -102 1
-43 0 -46 -28 -50 -30 -5 -55 13 -43 32 3 5 13 10 21 10 8 0 14 5 14 11 0 6
-9 8 -20 4 -16 -5 -20 -2 -20 14 0 24 -37 29 -69 9 -15 -9 -24 -8 -43 4 -19
12 -28 13 -54 2 -17 -7 -34 -20 -38 -29 -3 -9 -11 -15 -18 -14 -7 1 -30 1 -50
0 -31 -1 -38 -5 -38 -21 0 -11 7 -23 15 -26 18 -7 20 -48 3 -62 -7 -5 -24 -13
-38 -17 -14 -4 -32 -15 -42 -25 -12 -13 -31 -17 -77 -16 -34 1 -61 -2 -61 -6
0 -4 -13 -8 -29 -8 -15 0 -42 -5 -60 -11 -18 -6 -35 -9 -38 -6 -3 3 2 30 11
59 8 29 17 64 18 77 3 25 58 73 65 56 14 -38 21 -39 53 -8 17 17 32 43 34 59
4 36 26 45 26 10 0 -22 5 -26 27 -26 31 0 73 35 73 62 0 14 -7 18 -31 16 -23
-2 -29 -6 -26 -20 3 -9 -1 -19 -8 -22 -10 -3 -13 4 -10 28 5 53 22 76 55 76
29 0 30 -1 30 -48 0 -42 3 -50 25 -60 30 -14 55 6 55 44 0 34 27 84 46 84 8 0
13 -4 10 -9 -4 -7 64 -31 87 -31 3 0 7 14 11 31 8 40 26 28 26 -17 0 -21 4
-33 10 -29 6 3 10 25 10 48 0 49 22 146 45 205 11 27 26 44 43 51 15 5 21 10
14 10 -7 1 -23 -4 -34 -10 -20 -11 -20 -9 -14 25 4 20 4 42 0 48 -9 15 -33
-75 -34 -127 0 -30 -3 -36 -10 -25 -8 12 -10 12 -11 -5 -1 -17 -2 -16 -9 5 -6
20 -8 14 -9 -27 -1 -57 -11 -64 -54 -42 -18 9 -20 9 -10 -1 9 -10 9 -16 -2
-27 -12 -12 -20 -11 -54 7 -47 24 -61 25 -61 6 0 -8 -9 -24 -21 -37 l-20 -24
4 28 c2 15 0 27 -4 27 -11 0 -6 33 7 52 5 7 19 45 31 83 40 128 62 189 97 275
22 52 36 102 36 128 0 92 44 198 100 246 30 25 101 43 120 31 6 -4 15 -17 20
-30 8 -21 11 -22 48 -12 35 9 42 17 65 67 24 51 26 67 24 164 -2 86 1 109 13
116 8 5 11 10 6 10 -4 0 2 9 15 20 21 17 22 19 5 20 -14 0 -17 6 -14 24 4 19
1 22 -15 18 -17 -4 -18 -2 -8 17 7 11 15 21 19 21 4 0 15 13 24 29 17 31 14
76 -5 64 -6 -3 -7 -1 -3 6 4 6 12 9 17 6 5 -4 13 5 18 18 14 36 67 70 107 69
19 -1 34 3 34 8 0 6 20 10 45 10 34 0 45 -4 45 -15z m-805 -19 c26 -26 41 -67
32 -90 -3 -7 -33 -19 -67 -25 -52 -10 -59 -15 -49 -27 15 -18 48 -18 69 1 15
13 19 13 29 2 15 -19 5 -42 -26 -62 -33 -22 -88 -12 -108 19 -18 27 -36 116
-24 116 5 0 7 10 4 23 -4 18 2 26 37 44 56 28 74 28 103 -1z m1849 -48 c-9
-14 -23 2 -17 18 4 12 8 13 14 3 4 -7 5 -17 3 -21z m-2564 -13 c-1 -13 -25
-45 -34 -45 -4 0 -5 4 -2 9 3 5 -3 11 -14 14 -15 4 -18 10 -13 24 3 10 11 21
16 25 12 7 47 -13 47 -27z m3 -172 c11 -166 10 -179 -20 -212 -16 -16 -40 -32
-54 -35 -23 -5 -27 -2 -31 19 -6 28 -1 35 23 35 22 0 49 37 49 67 l0 23 -21
-21 c-29 -29 -85 -23 -112 13 -25 33 -27 100 -4 144 20 39 66 60 96 44 17 -9
21 -8 21 5 0 9 9 15 23 15 23 0 24 -4 30 -97z m1180 57 c-3 -37 6 -72 17 -65
6 3 10 -5 10 -18 0 -20 -4 -23 -30 -19 -24 3 -30 1 -30 -15 0 -10 5 -24 11
-30 17 -17 6 -55 -19 -64 -20 -8 -25 -4 -38 26 -15 36 -31 44 -52 23 -10 -10
-17 -8 -34 9 l-22 22 -11 -22 c-6 -12 -33 -34 -60 -48 -28 -14 -59 -40 -70
-57 -24 -38 -42 -40 -55 -6 -12 29 -4 68 16 85 8 6 14 26 14 43 l1 31 23 -28
c30 -37 56 -32 71 12 8 23 22 39 50 52 l39 19 26 -25 c36 -35 52 -31 76 20 20
43 20 45 3 45 -27 0 -23 28 4 33 46 9 62 3 60 -23z m505 18 c10 -10 14 -10 21
0 6 10 13 11 34 1 31 -14 33 -25 11 -50 -21 -23 -12 -46 18 -51 13 -2 23 -9
23 -17 0 -19 -33 -39 -43 -26 -10 14 -82 17 -82 3 0 -6 -3 -8 -7 -4 -4 3 -7
40 -7 81 -1 75 6 89 32 63z m-1868 -33 c0 -16 -6 -25 -15 -25 -16 0 -19 9 -9
34 9 25 24 19 24 -9z m2417 19 c-3 -3 -12 -4 -19 -1 -8 3 -5 6 6 6 11 1 17 -2
13 -5z m-269 -10 c31 -9 28 -21 -8 -29 -37 -8 -42 -17 -34 -50 5 -19 10 -23
17 -16 6 6 25 11 42 11 22 0 26 -3 15 -10 -8 -5 -11 -12 -7 -16 4 -4 17 2 30
14 13 12 30 22 39 22 19 0 41 -56 30 -75 -11 -19 -72 -68 -72 -58 0 4 -5 0
-11 -9 -5 -10 -15 -18 -20 -18 -6 0 -8 4 -5 9 3 5 3 23 -1 41 -5 26 -8 29 -15
16 -5 -9 -15 -16 -22 -16 -7 0 -21 -9 -31 -20 -17 -19 -17 -20 15 -50 l32 -30
-26 0 c-39 0 -33 -26 7 -27 59 -2 59 -1 47 -23 -6 -11 -21 -21 -33 -21 -21 -2
-21 -2 1 -6 14 -3 32 3 43 13 17 15 22 16 29 4 9 -14 14 -2 23 60 3 15 5 8 6
-16 1 -33 -6 -50 -31 -82 -34 -42 -78 -68 -100 -59 -14 5 -19 14 -58 105 -23
52 -36 62 -57 41 -6 -6 -20 -9 -32 -7 l-22 3 25 49 c20 40 24 61 23 122 -2 72
4 86 31 76 9 -3 8 -8 -5 -17 -25 -18 -11 -28 26 -20 36 8 40 28 10 48 -22 16
-17 23 29 37 35 11 42 11 70 4z m-2208 -34 c65 -65 18 -210 -67 -210 -64 0
-104 73 -83 151 19 71 104 105 150 59z m-704 -6 c-3 -9 -6 -20 -6 -25 0 -5 -4
-9 -10 -9 -11 0 -14 33 -3 43 12 13 25 7 19 -9z m284 -70 c0 -1 -7 -10 -16
-19 -22 -22 -48 -2 -33 26 5 10 7 19 4 19 -4 0 -3 5 0 10 4 7 14 2 26 -11 10
-12 19 -23 19 -25z m-235 0 c21 -51 19 -73 -9 -86 -40 -17 -56 -4 -56 44 0 31
3 39 10 28 8 -12 12 -9 22 18 7 17 14 32 15 32 2 0 10 -16 18 -36z m215 -84
c0 -19 -11 -26 -23 -14 -8 8 3 34 14 34 5 0 9 -9 9 -20z m-212 -51 c-4 -28
-33 -37 -42 -13 -8 20 23 59 37 45 5 -5 7 -19 5 -32z m2080 -8 c7 -45 -60 -71
-74 -29 -6 21 -7 21 -20 -5 -18 -34 -47 -50 -62 -35 -31 31 12 93 58 84 14 -2
32 0 40 5 26 16 55 6 58 -20z m-510 -15 c3 -20 0 -27 -10 -24 -7 3 -14 17 -16
32 -3 20 0 27 10 24 7 -3 14 -17 16 -32z m1045 -40 c1 -6 -11 -13 -28 -18 -16
-4 -55 -30 -85 -58 -30 -28 -56 -46 -58 -41 -2 6 4 18 12 27 9 8 16 22 16 29
0 8 5 26 12 40 9 19 17 25 32 21 12 -3 28 -1 36 5 18 11 60 8 63 -5z m1155
-21 c4 -9 18 -17 30 -18 12 -1 22 -3 22 -6 0 -10 -37 -30 -57 -31 -13 0 -23
-6 -23 -12 0 -8 -3 -9 -8 -3 -4 6 -16 15 -26 21 -25 13 -43 41 -33 51 4 4 16
2 27 -4 14 -10 21 -9 30 2 16 19 27 19 38 0z m-3768 -11 c0 -8 -5 -24 -10 -34
-9 -16 -5 -22 25 -36 49 -23 46 -56 -7 -65 -27 -4 -35 -2 -31 8 3 7 -2 13 -11
13 -13 0 -16 11 -16 58 0 32 3 62 7 65 13 13 43 7 43 -9z m1018 -28 c-4 -25
-27 -28 -41 -4 -8 12 -7 21 2 32 18 21 43 2 39 -28z m492 4 c0 -6 -6 -10 -14
-10 -16 0 -38 24 -30 33 9 8 44 -11 44 -23z m-1269 -10 c10 -6 19 -20 19 -30
0 -26 -36 -27 -50 -1 -20 39 -8 51 31 31z m862 -96 c2 -13 0 -27 -4 -30 -5 -3
-9 0 -9 5 0 6 -7 11 -15 11 -8 0 -15 -6 -15 -14 0 -22 -15 -27 -44 -16 -37 14
-34 49 6 77 28 20 33 20 53 7 13 -8 25 -26 28 -40z m251 19 c10 -26 -35 -46
-49 -23 -11 17 3 40 24 40 10 0 22 -8 25 -17z m1566 -43 c24 -34 25 -44 4 -61
-14 -11 -20 -9 -45 19 -16 18 -29 43 -29 56 0 19 4 22 25 18 14 -2 34 -17 45
-32z m890 -29 c0 -10 -15 -34 -33 -54 -32 -34 -35 -35 -55 -21 -29 20 -28 52
1 63 12 5 31 18 41 30 15 16 22 18 33 10 7 -6 13 -19 13 -28z m-3610 -21 c0
-10 -4 -22 -10 -25 -6 -4 -10 7 -10 25 0 18 4 29 10 25 6 -3 10 -15 10 -25z
m60 0 c13 -8 12 -10 -2 -10 -10 0 -21 0 -25 -1 -4 0 -9 4 -11 10 -5 14 18 14
38 1z m650 -10 c0 -21 -15 -27 -25 -10 -7 12 2 30 16 30 5 0 9 -9 9 -20z m417
-7 c3 -8 1 -19 -6 -26 -8 -8 -16 -6 -32 10 -12 11 -19 26 -15 31 8 14 46 3 53
-15z m-1289 -10 c42 -7 40 -32 -6 -55 -30 -15 -32 -17 -13 -23 28 -9 27 -25
-2 -25 -13 0 -28 -5 -35 -12 -9 -9 -12 -1 -12 38 0 27 -3 60 -7 73 -6 22 -4
23 18 17 13 -5 39 -10 57 -13z m1162 -3 c0 -5 -4 -10 -10 -10 -5 0 -10 5 -10
10 0 6 5 10 10 10 6 0 10 -4 10 -10z m-240 -15 c0 -8 -2 -15 -4 -15 -2 0 -6 7
-10 15 -3 8 -1 15 4 15 6 0 10 -7 10 -15z m250 -20 c-15 -18 -40 -20 -40 -2 0
14 43 36 48 24 2 -4 -2 -14 -8 -22z m-1013 -67 c-2 -18 -4 -6 -4 27 0 33 2 48
4 33 2 -15 2 -42 0 -60z m893 63 c0 -10 -30 -24 -37 -17 -3 3 -2 9 2 15 8 13
35 15 35 2z m175 -30 c3 -5 1 -12 -5 -16 -5 -3 -10 1 -10 9 0 18 6 21 15 7z
m-87 -82 c1 -8 -4 -23 -12 -34 -12 -16 -17 -17 -27 -8 -10 10 -10 18 -1 39 13
26 35 28 40 3z m-1173 -36 c5 -18 3 -22 -9 -17 -9 3 -16 18 -16 32 0 29 14 20
25 -15z m315 -5 c0 -19 -2 -20 -10 -8 -13 19 -13 30 0 30 6 0 10 -10 10 -22z
m1118 -7 c12 -7 12 -12 0 -30 -23 -38 -90 -42 -96 -7 -7 36 59 61 96 37z
m-1328 -31 c0 -11 -4 -20 -10 -20 -5 0 -10 9 -10 20 0 11 5 20 10 20 6 0 10
-9 10 -20z m636 -35 c-5 -18 -12 -25 -24 -23 -21 4 -28 44 -11 64 19 23 44 -6
35 -41z m-706 5 c0 -5 -2 -10 -4 -10 -3 0 -8 5 -11 10 -3 6 -1 10 4 10 6 0 11
-4 11 -10z m3666 -25 c-4 -26 -24 -41 -38 -27 -8 8 -8 15 2 27 16 19 39 20 36
0z m-3540 -52 c-10 -10 -19 5 -10 18 6 11 8 11 12 0 2 -7 1 -15 -2 -18z m3384
-14 c5 -18 -1 -31 -22 -51 -15 -14 -28 -35 -28 -47 0 -12 -4 -21 -10 -21 -5 0
-10 10 -10 23 0 12 -3 45 -6 74 -6 45 -4 52 12 55 31 7 58 -7 64 -33z m-3012
-4 c6 -47 -34 -57 -83 -22 -17 13 -17 17 -5 31 20 25 84 18 88 -9z m3313 -35
c39 -22 18 -54 -43 -65 -46 -9 -59 11 -31 49 19 27 43 32 74 16z m-3156 -72
c4 -35 12 -68 17 -75 10 -12 3 -33 -10 -33 -24 0 -59 112 -47 150 13 42 33 21
40 -42z m-456 -51 c-1 -59 -2 -60 -10 -22 -11 56 -11 97 1 90 6 -3 9 -34 9
-68z m1195 42 c5 -24 10 -30 28 -27 33 4 39 -46 7 -62 -20 -11 -26 -8 -56 24
-33 35 -33 36 -18 66 20 38 31 38 39 -1z m2295 -10 c-16 -10 -23 -4 -14 10 3
6 11 8 17 5 6 -4 5 -9 -3 -15z m-3691 -53 c15 -52 11 -76 -13 -76 -10 0 -15
10 -15 34 0 18 -3 48 -7 66 -10 52 19 32 35 -24z m1402 -192 c0 -16 -26 -19
-35 -4 -4 6 -4 18 -1 27 5 12 9 13 21 3 8 -7 15 -19 15 -26z m2256 14 c4 -7
-2 -18 -14 -26 -12 -8 -22 -25 -22 -38 0 -13 -4 -24 -9 -24 -15 0 -23 18 -11
25 5 3 10 16 10 29 0 36 31 59 46 34z m-2871 -128 c3 -4 -2 -13 -10 -20 -12
-10 -18 -10 -30 0 -24 20 -18 38 10 32 14 -2 27 -8 30 -12z m2783 -65 c-3 -3
-9 2 -12 12 -6 14 -5 15 5 6 7 -7 10 -15 7 -18z m-938 -57 c0 -28 -17 -21 -24
10 -4 15 -9 36 -12 47 -4 13 1 10 15 -10 12 -16 21 -38 21 -47z m-1320 41 c0
-5 -7 -9 -15 -9 -9 0 -12 6 -9 15 6 15 24 11 24 -6z m2279 -54 c1 -22 61 -75
84 -75 8 0 20 -6 26 -13 15 -18 -3 -41 -51 -66 -39 -19 -46 -15 -38 24 1 5 -5
32 -14 60 -18 61 -30 140 -16 110 5 -11 9 -29 9 -40z m-3549 -23 c0 -13 -12
-22 -22 -16 -10 6 -1 24 13 24 5 0 9 -4 9 -8z m1918 -58 c12 -4 22 -12 22 -19
0 -7 14 -18 31 -26 18 -7 42 -23 55 -36 13 -13 29 -23 36 -23 7 0 21 -12 30
-27 10 -16 18 -22 18 -14 0 11 5 10 20 -4 12 -11 32 -17 52 -15 72 5 235 -4
246 -14 3 -3 -1 -12 -7 -20 -19 -22 -98 -35 -186 -30 -44 3 -91 4 -105 2 -69
-8 -254 0 -330 16 -47 10 -95 19 -106 22 -29 5 -35 24 -28 93 7 58 7 59 43 65
20 3 50 6 67 6 17 0 37 7 44 15 13 15 58 19 98 9z m-328 -24 c0 -11 -7 -20
-15 -20 -27 0 -18 30 13 39 1 1 2 -8 2 -19z m1560 -112 c0 -16 -3 -19 -11 -11
-6 6 -8 16 -5 22 11 17 16 13 16 -11z m-1955 -32 c17 0 37 4 47 8 12 5 18 2
23 -14 5 -15 -2 -31 -29 -60 -40 -45 -43 -55 -21 -76 22 -22 18 -45 -11 -77
-21 -23 -28 -26 -40 -16 -9 7 -14 25 -12 40 1 16 -5 36 -15 47 -15 16 -17 32
-13 88 3 38 5 71 5 73 1 2 9 0 19 -5 9 -4 31 -8 47 -8z m175 -21 c0 -26 -14
-31 -39 -16 -12 8 -12 12 -2 25 20 24 41 19 41 -9z m508 -121 c15 -4 14 -51
-1 -71 -14 -20 -29 -15 -22 6 3 11 0 23 -6 27 -9 5 -10 2 -6 -9 3 -10 2 -17
-3 -17 -6 0 -10 5 -10 10 0 6 -22 10 -50 10 -36 0 -52 -5 -59 -17 -8 -15 -10
-10 -11 21 0 31 3 37 16 32 11 -4 15 -2 11 7 -4 11 8 13 61 10 37 -2 73 -6 80
-9z m279 -16 c-3 -7 -5 -2 -5 12 0 14 2 19 5 13 2 -7 2 -19 0 -25z m-214 -50
c-8 -24 -20 -49 -28 -57 -8 -8 -5 8 8 42 26 66 42 77 20 15z m-177 3 c-4 -5 3
-7 14 -4 15 4 20 0 20 -15 0 -15 -5 -19 -20 -15 -15 4 -20 0 -20 -17 0 -19 -2
-20 -15 -6 -17 16 -21 51 -5 41 6 -3 10 -2 10 4 0 5 -6 12 -12 14 -7 3 -3 6
10 6 13 1 21 -3 18 -8z m-292 -33 c7 -28 6 -113 -3 -153 -3 -17 -14 -31 -24
-33 -15 -3 -17 7 -17 96 0 54 3 102 7 105 13 14 31 6 37 -15z m243 -10 c-3 -8
-6 -5 -6 6 -1 11 2 17 5 13 3 -3 4 -12 1 -19z m1763 12 c0 -5 6 -10 14 -10 22
0 27 -29 7 -40 -13 -7 -17 -16 -14 -31 4 -15 3 -20 -6 -15 -6 4 -9 12 -6 17 4
5 -1 12 -9 15 -19 7 -18 74 2 74 6 0 12 -4 12 -10z m-1655 -54 c13 -9 27 -11
42 -5 32 12 29 3 -5 -15 -33 -17 -120 -27 -128 -15 -3 5 19 9 48 9 36 0 48 3
38 9 -8 6 -18 7 -22 5 -4 -3 -8 2 -8 10 0 20 10 20 35 2z m-1535 -46 c0 -42
-24 -58 -33 -22 -4 13 -5 11 -6 -5 -2 -38 -21 -26 -21 13 0 21 4 33 10 29 6
-3 13 1 16 9 13 33 34 17 34 -24z m2370 5 c0 -8 -4 -15 -9 -15 -5 0 -11 7 -15
15 -3 9 0 15 9 15 8 0 15 -7 15 -15z m-2594 -7 c10 -15 6 -80 -5 -91 -14 -14
-40 4 -46 35 -10 42 32 88 51 56z m531 -179 c14 -14 6 -39 -12 -39 -15 0 -24
19 -17 38 5 15 15 15 29 1z m634 -53 c7 -15 8 -44 3 -84 l-9 -61 -21 63 c-14
41 -18 69 -13 84 11 29 27 28 40 -2z m-628 -30 c8 -21 -3 -56 -18 -56 -13 0
-24 37 -17 58 5 16 29 15 35 -2z m36 -183 c13 -46 -3 -70 -19 -29 -5 15 -10
36 -10 47 0 32 18 21 29 -18z"/>
<path d="M2700 6219 c0 -5 5 -7 10 -4 6 3 10 8 10 11 0 2 -4 4 -10 4 -5 0 -10
-5 -10 -11z"/>
<path d="M3703 6205 c-18 -19 20 -51 46 -39 17 8 17 10 -8 30 -21 17 -28 19
-38 9z"/>
<path d="M2614 6186 c-8 -22 3 -33 18 -18 9 9 9 15 0 24 -9 9 -13 7 -18 -6z"/>
<path d="M2525 6160 c-9 -10 -22 -18 -29 -17 -6 1 -10 -5 -9 -14 2 -9 -16 -27
-42 -43 -65 -41 -70 -50 -54 -88 19 -48 39 -65 69 -57 14 4 30 7 36 8 17 1 27
-31 12 -41 -10 -6 -9 -8 3 -8 9 0 19 9 22 20 3 12 14 20 26 20 12 0 20 3 20 8
-1 4 0 9 1 12 6 15 4 60 -2 60 -4 0 -8 -6 -8 -12 0 -9 -3 -10 -8 -2 -9 14 -72
36 -72 25 0 -4 11 -20 25 -35 13 -14 23 -26 22 -27 -29 -9 -72 -4 -87 11 -30
30 -11 87 25 74 7 -3 15 2 18 10 4 9 14 16 23 16 9 0 29 11 46 25 41 34 16 31
-51 -6 -31 -18 -50 -25 -43 -16 8 9 22 19 33 22 10 4 19 13 19 21 0 8 6 17 13
20 8 3 14 11 14 19 0 19 0 19 -22 -5z"/>
<path d="M2608 6145 c-3 -6 0 -18 7 -28 13 -18 14 -17 26 5 11 20 11 22 -4 10
-13 -11 -16 -10 -19 5 -2 10 -6 13 -10 8z"/>
<path d="M3448 6093 c7 -3 16 -2 19 1 4 3 -2 6 -13 5 -11 0 -14 -3 -6 -6z"/>
<path d="M3150 6026 c6 -6 21 -5 42 2 l33 11 -43 -2 c-27 0 -39 -4 -32 -11z"/>
<path d="M1467 6023 c-10 -9 -9 -23 2 -23 5 0 11 7 15 15 5 15 -5 20 -17 8z"/>
<path d="M1268 5962 c-37 -4 -55 -28 -28 -35 11 -3 23 -1 26 4 3 5 16 9 30 9
25 0 33 15 12 22 -7 2 -25 2 -40 0z"/>
<path d="M2325 5957 c-10 -8 -15 -19 -11 -26 10 -15 22 -7 29 19 6 24 6 24
-18 7z"/>
<path d="M3900 5851 c-51 -27 -61 -31 -74 -31 -23 0 -66 -52 -66 -78 0 -17 -4
-23 -15 -18 -10 3 -15 -1 -15 -12 0 -9 -7 -26 -15 -36 -8 -11 -15 -27 -15 -37
0 -18 -32 -32 -67 -29 -13 1 -23 -4 -23 -10 0 -7 -6 -10 -14 -7 -8 3 -20 -1
-26 -9 -7 -8 -20 -14 -30 -14 -9 0 -25 -9 -36 -21 -12 -14 -25 -18 -41 -14
-16 4 -23 1 -23 -9 0 -9 -10 -21 -22 -27 -13 -7 -47 -36 -75 -65 -29 -30 -57
-54 -62 -54 -5 0 -11 -10 -13 -22 -2 -18 -10 -23 -47 -25 -26 -2 -53 -11 -65
-21 -12 -11 -29 -22 -38 -25 -11 -4 -19 -22 -23 -54 -4 -26 -8 -55 -11 -63 -8
-32 13 -45 73 -44 32 0 74 6 93 11 19 6 71 19 115 28 44 10 133 30 197 46 64
16 135 29 158 29 23 0 51 5 63 12 12 6 37 10 56 10 18 -1 46 5 60 12 43 23
140 48 166 43 15 -2 25 0 25 7 0 24 -52 492 -56 505 -4 11 -7 12 -16 3 -17
-17 -46 -15 -57 6 -10 18 -16 11 -23 -32 -2 -11 -8 -21 -14 -23 -15 -5 -24 53
-10 67 12 12 7 12 -14 1z m-30 -62 c0 -5 -7 -9 -15 -9 -15 0 -20 12 -9 23 8 8
24 -1 24 -14z m118 -11 c19 -19 14 -28 -18 -28 -18 0 -30 5 -30 13 0 28 27 36
48 15z m-45 -68 c7 -6 23 -19 37 -29 24 -19 24 -21 8 -37 -16 -17 -18 -16 -27
8 -8 21 -41 48 -41 34 0 -3 -3 -12 -7 -22 -5 -13 -3 -16 10 -11 11 4 17 1 17
-8 0 -8 -4 -15 -10 -15 -5 0 -10 -7 -10 -16 0 -32 -25 -6 -30 32 -9 61 17 93
53 64z m95 -132 c-2 -6 -10 -14 -16 -16 -7 -2 -10 2 -6 12 7 18 28 22 22 4z
m-244 -167 c-8 -9 -34 10 -34 25 0 16 2 16 19 -2 10 -10 17 -21 15 -23z m-74
-111 c0 -5 -7 -10 -16 -10 -8 0 -12 5 -9 10 3 6 10 10 16 10 5 0 9 -4 9 -10z
m-120 -30 c0 -5 -4 -10 -10 -10 -5 0 -10 5 -10 10 0 6 5 10 10 10 6 0 10 -4
10 -10z m-185 -50 c-3 -5 -10 -10 -16 -10 -5 0 -9 5 -9 10 0 6 7 10 16 10 8 0
12 -4 9 -10z m-120 -20 c3 -6 -1 -13 -10 -16 -19 -8 -30 0 -20 15 8 14 22 14
30 1z"/>
<path d="M2370 5805 c0 -10 29 -24 34 -17 3 6 -3 12 -14 15 -11 3 -20 4 -20 2z"/>
<path d="M1947 5784 c-4 -4 -7 -14 -7 -23 0 -11 3 -12 11 -4 6 6 10 16 7 23
-2 6 -7 8 -11 4z"/>
<path d="M636 5711 c-17 -6 -17 -8 -4 -14 10 -3 19 0 22 9 3 8 4 14 3 13 -1 0
-11 -4 -21 -8z"/>
<path d="M2294 5665 c-10 -8 -14 -15 -7 -15 19 0 43 11 43 21 0 13 -14 11 -36
-6z"/>
<path d="M436 5661 c-12 -5 -15 -10 -9 -14 6 -4 16 0 23 8 14 17 13 17 -14 6z"/>
<path d="M2220 5393 c2 -17 36 -76 45 -77 5 0 12 13 16 31 6 29 3 33 -24 42
-36 13 -37 13 -37 4z"/>
<path d="M2392 5221 c-19 -27 -36 -66 -39 -87 -4 -35 -1 -42 26 -62 l31 -23 0
33 c0 19 6 42 14 53 7 11 18 40 23 65 18 85 -6 94 -55 21z"/>
<path d="M1693 5198 c-27 -13 -30 -33 -7 -42 25 -10 34 -7 34 9 0 8 5 15 10
15 6 0 10 -9 10 -20 0 -11 4 -20 10 -20 6 0 6 9 1 23 -4 12 -6 28 -4 35 6 15
-23 15 -54 0z"/>
<path d="M4102 5150 c0 -14 2 -19 5 -12 2 6 2 18 0 25 -3 6 -5 1 -5 -13z"/>
<path d="M1745 5019 c-4 -6 -4 -13 -1 -16 3 -4 6 0 7 8 1 8 5 3 9 -11 l8 -25
1 28 c1 27 -12 36 -24 16z"/>
<path d="M1883 4993 c9 -2 23 -2 30 0 6 3 -1 5 -18 5 -16 0 -22 -2 -12 -5z"/>
<path d="M4121 4964 c0 -11 3 -14 6 -6 3 7 2 16 -1 19 -3 4 -6 -2 -5 -13z"/>
<path d="M1783 4896 l-23 -22 20 -17 c12 -10 18 -22 15 -27 -3 -6 -2 -10 4
-10 5 0 13 -10 17 -22 3 -12 23 -39 43 -61 20 -21 41 -48 48 -60 7 -12 12 -16
13 -9 0 7 -5 21 -12 31 -9 15 -9 23 2 36 12 14 15 14 39 -8 14 -14 37 -28 51
-32 24 -7 24 -7 8 12 -10 11 -18 24 -18 30 0 19 -25 58 -40 61 -22 5 -37 20
-59 58 -11 19 -16 36 -10 39 5 4 9 11 9 17 0 7 -4 7 -12 1 -11 -8 -33 -10 -40
-3 -13 9 -37 3 -55 -14z m51 -62 c3 -8 2 -14 -2 -14 -10 0 -32 22 -32 32 0 12
28 -2 34 -18z m36 -14 c0 -5 -2 -10 -4 -10 -3 0 -8 5 -11 10 -3 6 -1 10 4 10
6 0 11 -4 11 -10z m15 -30 c-3 -5 -12 -10 -18 -10 -7 0 -6 4 3 10 19 12 23 12
15 0z"/>
<path d="M4132 4875 c0 -16 2 -22 5 -12 2 9 2 23 0 30 -3 6 -5 -1 -5 -18z"/>
<path d="M1912 4868 c3 -22 53 -56 65 -44 10 10 -16 58 -27 51 -6 -3 -10 -1
-10 4 0 6 -7 11 -16 11 -10 0 -14 -7 -12 -22z"/>
<path d="M4143 4775 c0 -22 2 -30 4 -17 2 12 2 30 0 40 -3 9 -5 -1 -4 -23z"/>
<path d="M4006 4741 c-3 -5 2 -11 12 -13 20 -5 42 0 42 11 0 10 -48 12 -54 2z"/>
<path d="M1915 4720 c3 -5 8 -10 11 -10 2 0 4 5 4 10 0 6 -5 10 -11 10 -5 0
-7 -4 -4 -10z"/>
<path d="M4141 4708 c1 -7 5 -24 9 -38 7 -22 8 -21 9 13 1 20 -3 37 -9 37 -5
0 -10 -6 -9 -12z"/>
<path d="M4096 4689 c-19 -19 -19 -19 2 -19 15 0 22 6 22 20 0 24 0 24 -24 -1z"/>
<path d="M1930 4690 c0 -5 5 -10 10 -10 6 0 10 5 10 10 0 6 -4 10 -10 10 -5 0
-10 -4 -10 -10z"/>
<path d="M3982 4681 c-10 -6 -9 -10 7 -14 12 -3 24 0 28 5 3 6 1 8 -5 4 -5 -3
-12 -2 -14 4 -2 5 -9 6 -16 1z"/>
<path d="M3816 4623 c-6 -14 -5 -15 5 -6 7 7 10 15 7 18 -3 3 -9 -2 -12 -12z"/>
<path d="M3840 4630 c0 -5 7 -7 15 -4 8 4 15 8 15 10 0 2 -7 4 -15 4 -8 0 -15
-4 -15 -10z"/>
<path d="M4162 4595 c0 -22 3 -60 7 -85 8 -41 9 -42 9 -10 0 19 -3 58 -8 85
-7 49 -7 49 -8 10z"/>
<path d="M3710 4604 c0 -8 5 -12 10 -9 6 4 8 11 5 16 -9 14 -15 11 -15 -7z"/>
<path d="M3755 4611 c-6 -11 9 -23 19 -14 9 9 7 23 -3 23 -6 0 -12 -4 -16 -9z"/>
<path d="M3857 4593 c-4 -3 -7 -11 -7 -17 0 -6 5 -5 12 2 6 6 9 14 7 17 -3 3
-9 2 -12 -2z"/>
<path d="M3926 4575 c-10 -8 -22 -12 -26 -10 -4 3 -13 -1 -19 -9 -9 -11 -7
-15 10 -19 24 -6 68 20 69 41 0 16 -10 15 -34 -3z"/>
<path d="M3970 4580 c0 -4 7 -7 15 -6 23 3 26 12 5 13 -11 1 -20 -2 -20 -7z"/>
<path d="M3210 4532 c0 -7 -5 -11 -11 -9 -6 1 -14 -4 -16 -10 -3 -7 0 -13 5
-13 14 0 36 29 28 37 -3 3 -6 1 -6 -5z"/>
<path d="M3230 4530 c0 -5 5 -10 11 -10 5 0 7 5 4 10 -3 6 -8 10 -11 10 -2 0
-4 -4 -4 -10z"/>
<path d="M3739 4531 c-23 -5 -25 -9 -18 -30 6 -14 15 -21 23 -18 7 3 19 0 25
-6 10 -9 17 -6 32 12 28 34 -5 56 -62 42z"/>
<path d="M2172 4500 c0 -19 2 -27 5 -17 2 9 2 25 0 35 -3 9 -5 1 -5 -18z"/>
<path d="M3701 4493 c-1 -12 4 -25 9 -28 12 -7 12 2 0 30 -8 19 -9 19 -9 -2z"/>
<path d="M3150 4469 c0 -5 5 -7 10 -4 6 3 10 8 10 11 0 2 -4 4 -10 4 -5 0 -10
-5 -10 -11z"/>
<path d="M3610 4469 c0 -5 5 -7 10 -4 6 3 10 8 10 11 0 2 -4 4 -10 4 -5 0 -10
-5 -10 -11z"/>
<path d="M3918 4451 c4 -10 1 -12 -9 -6 -10 6 -11 5 -3 -4 12 -13 40 -6 47 12
3 7 -5 12 -18 12 -15 0 -21 -5 -17 -14z"/>
<path d="M3975 4460 c3 -5 8 -10 11 -10 2 0 4 5 4 10 0 6 -5 10 -11 10 -5 0
-7 -4 -4 -10z"/>
<path d="M4086 4451 c-4 -7 -5 -15 -2 -18 9 -9 19 4 14 18 -4 11 -6 11 -12 0z"/>
<path d="M2460 4420 c0 -5 5 -10 10 -10 6 0 10 5 10 10 0 6 -4 10 -10 10 -5 0
-10 -4 -10 -10z"/>
<path d="M3979 4403 c-10 -11 -10 -14 -1 -9 7 4 12 2 12 -4 0 -7 6 -5 15 4 8
8 15 17 15 20 0 13 -28 5 -41 -11z"/>
<path d="M3200 4390 c0 -5 5 -10 10 -10 6 0 10 5 10 10 0 6 -4 10 -10 10 -5 0
-10 -4 -10 -10z"/>
<path d="M3780 4389 c0 -10 50 -18 55 -9 3 4 -9 10 -25 12 -17 3 -30 1 -30 -3z"/>
<path d="M3950 4391 c0 -6 4 -13 10 -16 6 -3 7 1 4 9 -7 18 -14 21 -14 7z"/>
<path d="M3165 4370 c-3 -5 1 -10 10 -10 9 0 13 5 10 10 -3 6 -8 10 -10 10 -2
0 -7 -4 -10 -10z"/>
<path d="M3475 4370 c-3 -5 1 -10 9 -10 9 0 16 5 16 10 0 6 -4 10 -9 10 -6 0
-13 -4 -16 -10z"/>
<path d="M3800 4360 c0 -5 5 -10 10 -10 6 0 10 5 10 10 0 6 -4 10 -10 10 -5 0
-10 -4 -10 -10z"/>
<path d="M3995 4361 c-3 -5 -1 -12 5 -16 5 -3 10 1 10 9 0 18 -6 21 -15 7z"/>
<path d="M3210 4346 c0 -8 4 -17 9 -20 5 -4 7 3 4 14 -6 23 -13 26 -13 6z"/>
<path d="M3696 4343 c-3 -3 -16 -7 -30 -8 -48 -6 -103 -66 -71 -79 9 -3 11 2
7 16 -3 14 -1 19 6 14 8 -4 12 0 13 11 0 17 1 17 8 0 6 -17 8 -17 20 -3 19 22
31 20 32 -6 l0 -23 10 23 c5 13 13 20 19 17 5 -3 10 -2 10 4 0 6 7 8 15 5 8
-4 15 -2 15 3 0 12 -46 34 -54 26z"/>
<path d="M3260 4309 c0 -5 5 -7 10 -4 6 3 10 8 10 11 0 2 -4 4 -10 4 -5 0 -10
-5 -10 -11z"/>
<path d="M3411 4304 c0 -11 3 -14 6 -6 3 7 2 16 -1 19 -3 4 -6 -2 -5 -13z"/>
<path d="M3930 4312 c0 -7 -4 -10 -10 -7 -5 3 -10 2 -10 -4 0 -5 4 -12 10 -16
5 -3 7 -13 3 -23 -3 -11 0 -9 11 5 13 17 14 27 7 40 -6 11 -11 13 -11 5z"/>
<path d="M3442 4290 c0 -14 2 -19 5 -12 2 6 2 18 0 25 -3 6 -5 1 -5 -13z"/>
<path d="M3531 4292 c-1 -16 -5 -21 -13 -16 -8 5 -7 0 2 -11 13 -16 15 -16 18
-2 2 10 1 25 -1 35 -3 12 -5 11 -6 -6z"/>
<path d="M3300 4298 c0 -14 23 -58 32 -59 28 -4 34 -4 39 4 9 12 -13 57 -28
57 -6 0 -15 -5 -19 -11 -4 -8 -9 -7 -15 2 -5 8 -9 11 -9 7z m59 -32 c9 -10 8
-15 -4 -20 -10 -4 -15 1 -15 14 0 24 4 25 19 6z"/>
<path d="M3421 4254 c0 -11 3 -14 6 -6 3 7 2 16 -1 19 -3 4 -6 -2 -5 -13z"/>
<path d="M2983 4195 c0 -14 4 -25 9 -25 5 0 7 4 3 9 -3 5 -1 12 5 16 6 3 10
-3 10 -16 0 -17 3 -19 14 -10 11 9 15 9 19 -1 4 -10 6 -10 6 0 1 7 -5 15 -13
18 -8 3 -13 11 -10 18 3 7 -6 12 -20 14 -19 1 -23 -3 -23 -23z"/>
<path d="M2930 4191 c0 -6 4 -13 10 -16 6 -3 7 1 4 9 -7 18 -14 21 -14 7z"/>
<path d="M2515 4180 c-3 -5 -1 -10 4 -10 6 0 11 5 11 10 0 6 -2 10 -4 10 -3 0
-8 -4 -11 -10z"/>
<path d="M3060 4175 c0 -8 4 -15 10 -15 5 0 7 7 4 15 -4 8 -8 15 -10 15 -2 0
-4 -7 -4 -15z"/>
<path d="M2461 4154 c0 -11 3 -14 6 -6 3 7 2 16 -1 19 -3 4 -6 -2 -5 -13z"/>
<path d="M2770 4148 c-14 -6 -20 -12 -13 -15 6 -2 24 3 40 11 32 17 11 20 -27
4z"/>
<path d="M3116 4129 c20 -23 24 -23 24 -5 0 7 -9 16 -21 19 -20 5 -20 5 -3
-14z"/>
<path d="M3086 4115 c4 -8 8 -15 10 -15 2 0 4 7 4 15 0 8 -4 15 -10 15 -5 0
-7 -7 -4 -15z"/>
<path d="M2890 4100 c0 -6 -4 -8 -10 -5 -5 3 -10 2 -10 -3 0 -5 12 -14 27 -21
22 -10 25 -10 15 2 -7 8 -9 16 -6 19 3 3 1 9 -5 13 -6 3 -11 1 -11 -5z"/>
<path d="M2994 3955 c0 -14 3 -25 7 -25 4 0 9 11 11 25 3 15 1 25 -6 25 -7 0
-12 -11 -12 -25z"/>
<path d="M3006 3905 c4 -8 8 -15 10 -15 2 0 4 7 4 15 0 8 -4 15 -10 15 -5 0
-7 -7 -4 -15z"/>
<path d="M3060 3789 c0 -16 4 -19 18 -14 9 4 25 10 34 12 26 8 11 23 -23 23
-23 0 -29 -4 -29 -21z"/>
<path d="M3148 3763 c7 -3 16 -2 19 1 4 3 -2 6 -13 5 -11 0 -14 -3 -6 -6z"/>
<path d="M2102 3625 c0 -16 2 -22 5 -12 2 9 2 23 0 30 -3 6 -5 -1 -5 -18z"/>
<path d="M2640 3589 c-26 -50 -22 -71 8 -41 19 19 32 82 17 82 -2 0 -14 -18
-25 -41z"/>
<path d="M4312 3230 c0 -14 2 -19 5 -12 2 6 2 18 0 25 -3 6 -5 1 -5 -13z"/>
<path d="M3720 3140 c0 -21 8 -24 34 -14 13 5 14 9 5 20 -17 21 -39 17 -39 -6z"/>
<path d="M4321 3144 c0 -11 3 -14 6 -6 3 7 2 16 -1 19 -3 4 -6 -2 -5 -13z"/>
<path d="M3790 3140 c0 -5 5 -10 10 -10 6 0 10 5 10 10 0 6 -4 10 -10 10 -5 0
-10 -4 -10 -10z"/>
<path d="M4323 3065 c-17 -18 -16 -23 2 -41 13 -14 15 -11 15 20 0 40 0 41
-17 21z"/>
<path d="M3912 3040 c-22 -35 -13 -100 14 -100 8 0 14 4 14 8 0 5 13 23 29 41
27 31 29 35 14 49 -24 24 -56 25 -71 2z"/>
<path d="M4342 2950 c0 -19 2 -27 5 -17 2 9 2 25 0 35 -3 9 -5 1 -5 -18z"/>
<path d="M3982 2897 c-25 -27 -28 -50 -8 -66 21 -17 46 13 46 55 0 40 -9 42
-38 11z"/>
<path d="M3743 2894 c-3 -8 -1 -20 6 -27 6 -6 11 -26 11 -44 0 -35 14 -44 24
-16 11 27 -4 103 -20 103 -8 0 -17 -7 -21 -16z"/>
<path d="M4140 2886 c0 -25 12 -46 26 -46 9 0 14 11 14 30 0 23 -4 30 -20 30
-11 0 -20 -6 -20 -14z"/>
<path d="M4212 2878 c-14 -14 2 -48 23 -48 10 0 15 10 15 30 0 31 -17 39 -38
18z"/>
<path d="M3640 1416 c0 -8 4 -17 9 -20 5 -4 7 3 4 14 -6 23 -13 26 -13 6z"/>
<path d="M3666 1313 c-4 -9 -2 -21 4 -27 7 -7 10 -2 10 17 0 31 -5 34 -14 10z"/>
<path d="M3847 786 c-4 -9 -14 -12 -26 -9 -15 4 -23 -1 -30 -18 -5 -13 -8 -25
-7 -26 0 -1 28 5 61 12 33 7 50 13 37 14 -20 1 -21 4 -12 21 8 16 8 20 -4 20
-7 0 -16 -6 -19 -14z"/>
<path d="M3918 763 c7 -3 16 -2 19 1 4 3 -2 6 -13 5 -11 0 -14 -3 -6 -6z"/>
<path d="M1187 5613 c-4 -3 -7 -11 -7 -17 0 -6 5 -5 12 2 6 6 9 14 7 17 -3 3
-9 2 -12 -2z"/>
<path d="M1110 5585 c0 -8 2 -15 4 -15 2 0 6 7 10 15 3 8 1 15 -4 15 -6 0 -10
-7 -10 -15z"/>
<path d="M876 5527 c3 -10 9 -15 12 -12 3 3 0 11 -7 18 -10 9 -11 8 -5 -6z"/>
<path d="M1510 4756 c0 -8 5 -18 10 -21 6 -3 10 3 10 14 0 12 -4 21 -10 21 -5
0 -10 -6 -10 -14z"/>
<path d="M1630 4610 c-8 -5 -12 -12 -9 -15 4 -3 12 1 19 10 14 17 11 19 -10 5z"/>
<path d="M648 4483 c6 -2 18 -2 25 0 6 3 1 5 -13 5 -14 0 -19 -2 -12 -5z"/>
<path d="M1080 4174 c0 -8 5 -12 10 -9 6 4 8 11 5 16 -9 14 -15 11 -15 -7z"/>
<path d="M1040 4169 c0 -5 5 -7 10 -4 6 3 10 8 10 11 0 2 -4 4 -10 4 -5 0 -10
-5 -10 -11z"/>
<path d="M980 4160 c-23 -7 -24 -8 -6 -15 13 -6 21 -4 24 3 2 7 8 10 13 6 5
-3 9 0 9 5 0 12 -4 12 -40 1z"/>
<path d="M616 4097 c-16 -12 -16 -15 -4 -19 20 -8 39 5 29 20 -6 9 -11 9 -25
-1z"/>
<path d="M400 4035 c0 -9 6 -12 15 -9 8 4 12 10 9 15 -8 14 -24 10 -24 -6z"/>
<path d="M1118 3975 c-7 -34 -5 -38 15 -33 13 2 13 8 3 33 l-13 30 -5 -30z"/>
<path d="M637 3954 c6 -15 23 -19 23 -5 0 5 -7 11 -14 14 -10 4 -13 1 -9 -9z"/>
<path d="M1161 3958 c-1 -21 15 -32 25 -17 4 7 3 9 -4 5 -6 -3 -13 2 -15 11
-4 16 -5 16 -6 1z"/>
<path d="M1210 3955 c-10 -12 -10 -15 3 -15 8 0 17 7 21 15 3 8 2 15 -3 15 -5
0 -14 -7 -21 -15z"/>
<path d="M1460 3955 c0 -8 9 -13 20 -12 24 2 21 19 -3 23 -9 1 -17 -4 -17 -11z"/>
<path d="M1365 3950 c3 -5 8 -10 11 -10 2 0 4 5 4 10 0 6 -5 10 -11 10 -5 0
-7 -4 -4 -10z"/>
<path d="M890 3936 c-6 -9 -10 -21 -7 -28 4 -9 6 -7 6 4 1 9 7 18 14 21 6 2 9
7 6 11 -3 4 -12 0 -19 -8z"/>
<path d="M1160 3903 c0 -14 8 -19 38 -19 20 -1 45 -4 55 -9 13 -6 17 -2 17 16
0 13 -4 20 -8 14 -10 -14 -32 -17 -32 -5 0 14 -27 13 -32 -1 -3 -8 -10 -6 -21
5 -16 16 -17 16 -17 -1z"/>
<path d="M1280 3900 c0 -5 5 -10 11 -10 5 0 7 5 4 10 -3 6 -8 10 -11 10 -2 0
-4 -4 -4 -10z"/>
<path d="M1487 3879 c7 -7 15 -10 18 -7 3 3 -2 9 -12 12 -14 6 -15 5 -6 -5z"/>
<path d="M685 3860 c-3 -5 1 -10 9 -10 9 0 16 5 16 10 0 6 -4 10 -9 10 -6 0
-13 -4 -16 -10z"/>
<path d="M1490 3850 c0 -5 5 -10 11 -10 5 0 7 5 4 10 -3 6 -8 10 -11 10 -2 0
-4 -4 -4 -10z"/>
<path d="M1238 3843 c-18 -3 -25 -9 -22 -18 5 -12 9 -12 28 0 13 8 26 12 31 8
4 -5 5 -2 1 5 -4 6 -8 11 -9 11 -1 -1 -14 -4 -29 -6z"/>
<path d="M1295 3840 c-3 -5 -1 -10 4 -10 6 0 11 5 11 10 0 6 -2 10 -4 10 -3 0
-8 -4 -11 -10z"/>
<path d="M1575 3810 c-3 -5 3 -10 15 -10 12 0 18 5 15 10 -3 6 -10 10 -15 10
-5 0 -12 -4 -15 -10z"/>
<path d="M642 3768 c2 -16 6 -24 11 -19 5 5 5 17 -2 28 -9 16 -10 15 -9 -9z"/>
<path d="M1460 3733 c0 -12 5 -25 10 -28 13 -8 13 15 0 35 -8 12 -10 11 -10
-7z"/>
<path d="M1486 3737 c3 -10 9 -15 12 -12 3 3 0 11 -7 18 -10 9 -11 8 -5 -6z"/>
<path d="M650 3725 c0 -18 19 -40 26 -32 4 4 0 15 -9 24 -9 10 -17 13 -17 8z"/>
<path d="M690 3720 c0 -5 5 -10 10 -10 6 0 10 5 10 10 0 6 -4 10 -10 10 -5 0
-10 -4 -10 -10z"/>
<path d="M1546 3707 c3 -10 9 -15 12 -12 3 3 0 11 -7 18 -10 9 -11 8 -5 -6z"/>
<path d="M655 3670 c3 -5 8 -10 11 -10 2 0 4 5 4 10 0 6 -5 10 -11 10 -5 0 -7
-4 -4 -10z"/>
<path d="M897 3659 c7 -7 15 -10 18 -7 3 3 -2 9 -12 12 -14 6 -15 5 -6 -5z"/>
<path d="M1470 3656 c0 -9 -4 -14 -10 -11 -5 3 -10 2 -10 -4 0 -5 4 -12 9 -16
11 -6 26 33 17 42 -3 4 -6 -1 -6 -11z"/>
<path d="M1170 3644 c0 -8 5 -12 10 -9 6 4 8 11 5 16 -9 14 -15 11 -15 -7z"/>
<path d="M645 3620 c-3 -5 -5 -10 -3 -11 33 -8 38 -7 27 7 -14 17 -16 17 -24
4z"/>
<path d="M700 3600 c0 -5 7 -10 15 -10 8 0 15 5 15 10 0 6 -7 10 -15 10 -8 0
-15 -4 -15 -10z"/>
<path d="M661 3574 c0 -11 3 -14 6 -6 3 7 2 16 -1 19 -3 4 -6 -2 -5 -13z"/>
<path d="M950 3560 c0 -5 4 -10 9 -10 6 0 13 5 16 10 3 6 -1 10 -9 10 -9 0
-16 -4 -16 -10z"/>
<path d="M1776 3548 c3 -4 9 -8 15 -8 5 0 9 4 9 8 0 5 -7 9 -15 9 -8 0 -12 -4
-9 -9z"/>
<path d="M667 3448 c3 -51 10 -95 15 -96 4 -2 5 -9 1 -15 -3 -7 3 -4 14 6 13
11 27 15 39 10 16 -6 17 -5 4 9 -8 8 -24 15 -35 14 -17 -1 -21 7 -25 60 -4 49
-2 60 9 56 10 -4 9 2 -4 21 -9 15 -19 27 -21 27 -2 0 -1 -42 3 -92z"/>
<path d="M820 3510 c0 -5 5 -10 11 -10 5 0 7 5 4 10 -3 6 -8 10 -11 10 -2 0
-4 -4 -4 -10z"/>
<path d="M851 3484 c0 -11 3 -14 6 -6 3 7 2 16 -1 19 -3 4 -6 -2 -5 -13z"/>
<path d="M1510 3495 c0 -5 5 -17 10 -25 5 -8 10 -10 10 -5 0 6 -5 17 -10 25
-5 8 -10 11 -10 5z"/>
<path d="M700 3470 c0 -5 5 -10 10 -10 6 0 10 5 10 10 0 6 -4 10 -10 10 -5 0
-10 -4 -10 -10z"/>
<path d="M875 3461 c-11 -5 -23 -7 -27 -4 -5 2 -8 -6 -8 -18 0 -17 3 -19 13
-10 8 6 18 7 22 3 5 -4 5 -1 1 6 -4 7 -1 12 8 12 9 0 16 5 16 10 0 6 -1 10 -2
9 -2 0 -12 -4 -23 -8z"/>
<path d="M1460 3435 c0 -11 5 -12 24 -5 13 5 27 6 30 3 3 -4 6 -1 6 5 0 7 -13
12 -30 12 -20 0 -30 -5 -30 -15z"/>
<path d="M1525 3419 c-4 -16 -10 -27 -15 -24 -17 11 -20 -28 -3 -40 15 -11 19
-11 26 2 5 8 6 17 3 20 -3 3 2 12 12 19 10 8 12 13 5 14 -19 0 -15 18 5 22 14
3 13 5 -5 10 -18 5 -23 1 -28 -23z"/>
<path d="M778 3433 c7 -3 16 -2 19 1 4 3 -2 6 -13 5 -11 0 -14 -3 -6 -6z"/>
<path d="M630 3390 c0 -5 5 -10 11 -10 5 0 7 5 4 10 -3 6 -8 10 -11 10 -2 0
-4 -4 -4 -10z"/>
<path d="M1168 3385 c13 -9 26 -14 29 -11 8 8 3 12 -27 21 l-25 7 23 -17z"/>
<path d="M568 3383 c7 -3 16 -2 19 1 4 3 -2 6 -13 5 -11 0 -14 -3 -6 -6z"/>
<path d="M1597 3336 c-21 -64 -21 -62 -1 -70 8 -3 12 -2 9 4 -3 6 -1 10 4 10
6 0 11 -5 11 -11 0 -20 18 1 23 28 3 16 -2 40 -12 59 l-18 33 -16 -53z"/>
<path d="M1743 3370 c-18 -14 -20 -20 -10 -33 14 -17 94 -29 103 -15 10 15
-17 39 -37 33 -13 -5 -21 0 -27 13 -7 20 -8 20 -29 2z"/>
<path d="M856 3372 c-2 -4 -1 -14 5 -22 7 -12 9 -10 9 8 0 23 -5 28 -14 14z"/>
<path d="M1435 3360 c-7 -12 2 -12 30 0 19 8 19 9 -2 9 -12 1 -25 -3 -28 -9z"/>
<path d="M760 3345 c0 -8 5 -15 10 -15 6 0 10 7 10 15 0 8 -4 15 -10 15 -5 0
-10 -7 -10 -15z"/>
<path d="M1035 3320 c-3 -6 1 -7 9 -4 18 7 21 14 7 14 -6 0 -13 -4 -16 -10z"/>
<path d="M1370 3309 c0 -18 2 -19 15 -9 8 7 15 16 15 21 0 5 -7 9 -15 9 -9 0
-15 -9 -15 -21z"/>
<path d="M671 3296 c-11 -12 -11 -16 -1 -16 9 0 11 -12 7 -39 -5 -39 -4 -39
20 -30 36 13 42 11 36 -12 -4 -16 -2 -20 8 -17 15 5 16 20 4 53 -4 11 2 7 14
-10 14 -20 21 -25 21 -13 0 9 -6 18 -12 21 -9 3 -7 11 7 27 17 20 17 22 3 17
-10 -3 -24 0 -31 8 -11 10 -17 11 -26 2 -8 -8 -14 -6 -24 7 -12 16 -14 16 -26
2z m54 -54 c-3 -3 -11 0 -18 7 -9 10 -8 11 6 5 10 -3 15 -9 12 -12z"/>
<path d="M970 3301 c0 -5 7 -11 15 -15 9 -3 15 0 15 9 0 8 -7 15 -15 15 -8 0
-15 -4 -15 -9z"/>
<path d="M827 3293 c-4 -3 -7 -11 -7 -17 0 -6 5 -5 12 2 6 6 9 14 7 17 -3 3
-9 2 -12 -2z"/>
<path d="M1310 3288 c0 -5 11 -8 25 -8 14 0 25 4 25 9 0 5 -11 8 -25 7 -14 0
-25 -4 -25 -8z"/>
<path d="M970 3251 c0 -5 5 -13 10 -16 6 -3 10 -2 10 4 0 5 -4 13 -10 16 -5 3
-10 2 -10 -4z"/>
<path d="M581 3236 c-14 -8 -30 -12 -37 -9 -12 5 -30 -15 -21 -23 5 -6 87 33
87 41 0 7 -1 6 -29 -9z"/>
<path d="M1010 3213 c0 -7 6 -10 13 -7 8 3 20 -2 27 -11 7 -8 19 -15 28 -15
13 0 13 2 -1 18 -10 10 -14 22 -10 26 4 3 -7 6 -25 4 -18 -1 -32 -8 -32 -15z"/>
<path d="M1255 3200 c3 -5 8 -10 11 -10 2 0 4 5 4 10 0 6 -5 10 -11 10 -5 0
-7 -4 -4 -10z"/>
<path d="M1584 3145 c1 -46 14 -59 47 -47 22 9 22 9 1 14 -12 3 -27 21 -35 39
l-14 34 1 -40z"/>
<path d="M525 3150 c3 -5 8 -10 11 -10 2 0 4 5 4 10 0 6 -5 10 -11 10 -5 0 -7
-4 -4 -10z"/>
<path d="M1735 3140 c-3 -5 -2 -10 4 -10 5 0 13 5 16 10 3 6 2 10 -4 10 -5 0
-13 -4 -16 -10z"/>
<path d="M860 3115 c-24 -14 -24 -14 -3 -15 12 0 25 5 28 11 11 17 2 18 -25 4z"/>
<path d="M480 3116 c0 -2 7 -7 16 -10 8 -3 12 -2 9 4 -6 10 -25 14 -25 6z"/>
<path d="M810 3099 c0 -5 5 -7 10 -4 6 3 10 8 10 11 0 2 -4 4 -10 4 -5 0 -10
-5 -10 -11z"/>
<path d="M518 3084 c6 -3 10 -10 7 -15 -3 -4 10 -8 30 -7 42 2 34 13 -15 22
-19 3 -29 3 -22 0z"/>
<path d="M487 3064 c3 -7 9 -14 14 -14 14 0 10 17 -5 23 -10 4 -13 1 -9 -9z"/>
<path d="M645 3060 c-16 -7 -17 -9 -3 -9 9 -1 20 4 23 9 7 11 7 11 -20 0z"/>
<path d="M1545 3029 c-4 -6 -5 -12 -2 -15 2 -3 7 2 10 11 7 17 1 20 -8 4z"/>
<path d="M871 2922 c-7 -13 -11 -26 -8 -28 8 -8 29 25 25 38 -3 8 -9 4 -17
-10z"/>
<path d="M910 2875 c0 -8 5 -15 10 -15 6 0 10 7 10 15 0 8 -4 15 -10 15 -5 0
-10 -7 -10 -15z"/>
<path d="M616 2821 c-4 -7 -5 -15 -2 -18 9 -9 19 4 14 18 -4 11 -6 11 -12 0z"/>
<path d="M3230 4081 c0 -5 5 -13 10 -16 6 -3 10 -2 10 4 0 5 -4 13 -10 16 -5
3 -10 2 -10 -4z"/>
<path d="M3100 3971 c0 -12 5 -21 10 -21 6 0 10 6 10 14 0 8 -4 18 -10 21 -5
3 -10 -3 -10 -14z"/>
<path d="M3180 3976 c0 -10 4 -15 9 -12 5 4 12 0 14 -6 4 -8 6 -9 6 -2 1 6 -6
17 -14 24 -12 10 -15 9 -15 -4z"/>
<path d="M3905 3859 c-4 -6 -4 -13 -1 -16 3 -4 6 -1 6 5 0 6 8 13 18 15 15 4
15 5 0 6 -9 0 -20 -4 -23 -10z"/>
<path d="M3680 3800 c0 -5 5 -10 11 -10 5 0 7 5 4 10 -3 6 -8 10 -11 10 -2 0
-4 -4 -4 -10z"/>
<path d="M3265 3870 c-3 -5 -1 -10 4 -10 6 0 11 5 11 10 0 6 -2 10 -4 10 -3 0
-8 -4 -11 -10z"/>
<path d="M3295 3860 c3 -5 11 -10 16 -10 6 0 7 5 4 10 -3 6 -11 10 -16 10 -6
0 -7 -4 -4 -10z"/>
<path d="M2910 3175 c6 -8 9 -19 5 -25 -4 -6 -1 -18 6 -27 8 -8 12 -29 10 -45
l-3 -29 26 26 c14 14 26 29 26 33 0 18 -52 82 -67 82 -12 0 -13 -3 -3 -15z"/>
<path d="M2763 3114 l-28 -25 33 22 c17 13 32 24 32 26 0 8 -11 1 -37 -23z"/>
<path d="M2701 2996 c12 -10 60 -16 54 -6 -3 5 -18 10 -32 10 -15 0 -24 -2
-22 -4z"/>
<path d="M2765 2961 c-4 -13 -12 -17 -25 -14 -11 3 -20 3 -20 0 0 -2 8 -7 18
-9 11 -3 28 4 41 18 18 18 19 24 8 24 -9 0 -18 -9 -22 -19z"/>
<path d="M2815 2860 c-4 -6 -19 -9 -33 -8 -19 2 -27 -2 -27 -12 0 -10 13 -16
43 -18 36 -3 42 0 42 17 0 23 -16 36 -25 21z"/>
<path d="M2695 2827 c-8 -20 -12 -43 -9 -51 7 -18 44 -22 44 -5 0 6 16 8 40 6
54 -5 63 -17 12 -17 -22 0 -44 -4 -47 -10 -8 -13 80 -13 106 0 24 13 25 37 2
44 -25 7 -99 -1 -123 -14 -23 -13 -26 2 -10 46 16 41 2 42 -15 1z"/>
<path d="M2805 2721 c-6 -11 9 -23 19 -14 9 9 7 23 -3 23 -6 0 -12 -4 -16 -9z"/>
<path d="M2525 2471 c-3 -5 -1 -12 5 -16 5 -3 10 1 10 9 0 18 -6 21 -15 7z"/>
<path d="M2724 2446 c-17 -8 -33 -23 -36 -34 -5 -16 0 -21 26 -26 18 -4 32 -2
34 4 2 5 15 7 28 4 15 -4 24 -2 24 5 0 6 -5 11 -11 11 -16 0 -36 24 -31 38 5
15 5 15 -34 -2z"/>
<path d="M3231 2380 c14 -31 19 -36 19 -24 0 6 -7 19 -16 30 -14 18 -14 18 -3
-6z"/>
<path d="M2507 2373 c-4 -3 -7 -11 -7 -17 0 -6 5 -5 12 2 6 6 9 14 7 17 -3 3
-9 2 -12 -2z"/>
<path d="M2456 2313 c-9 -10 -7 -25 3 -19 5 4 12 0 14 -6 4 -8 6 -7 6 4 1 19
-13 31 -23 21z"/>
<path d="M2462 2250 c0 -14 2 -19 5 -12 2 6 2 18 0 25 -3 6 -5 1 -5 -13z"/>
<path d="M2451 2204 c0 -11 3 -14 6 -6 3 7 2 16 -1 19 -3 4 -6 -2 -5 -13z"/>
<path d="M3150 2167 c0 -14 4 -28 9 -31 5 -4 8 5 6 19 -3 35 -15 44 -15 12z"/>
<path d="M3110 2161 c0 -6 5 -13 10 -16 6 -3 10 1 10 9 0 9 -4 16 -10 16 -5 0
-10 -4 -10 -9z"/>
<path d="M2392 2110 c0 -19 2 -27 5 -17 2 9 2 25 0 35 -3 9 -5 1 -5 -18z"/>
<path d="M2828 1629 c-16 -28 -16 -30 -2 -27 10 2 18 15 20 31 1 15 2 27 1 27
-1 0 -10 -14 -19 -31z"/>
<path d="M2610 1595 c0 -8 2 -15 4 -15 2 0 6 7 10 15 3 8 1 15 -4 15 -6 0 -10
-7 -10 -15z"/>
<path d="M2660 1606 c0 -2 7 -7 16 -10 8 -3 12 -2 9 4 -6 10 -25 14 -25 6z"/>
<path d="M2567 1593 c-4 -3 -7 -11 -7 -17 0 -6 5 -5 12 2 6 6 9 14 7 17 -3 3
-9 2 -12 -2z"/>
<path d="M2591 1573 c-1 -16 5 -23 17 -23 10 0 13 3 6 8 -6 4 -14 14 -17 22
-4 10 -6 8 -6 -7z"/>
<path d="M2708 1583 c7 -3 16 -2 19 1 4 3 -2 6 -13 5 -11 0 -14 -3 -6 -6z"/>
<path d="M2010 1499 c0 -5 5 -7 10 -4 6 3 10 8 10 11 0 2 -4 4 -10 4 -5 0 -10
-5 -10 -11z"/>
<path d="M1820 1375 c0 -8 2 -15 4 -15 2 0 6 7 10 15 3 8 1 15 -4 15 -6 0 -10
-7 -10 -15z"/>
<path d="M2069 3139 c-11 -21 -10 -22 22 -15 38 7 43 11 34 25 -11 18 -44 12
-56 -10z"/>
<path d="M1322 2978 c-17 -17 -15 -83 3 -98 39 -32 92 40 65 89 -12 23 -49 28
-68 9z"/>
<path d="M3295 2900 c-3 -6 1 -7 9 -4 18 7 21 14 7 14 -6 0 -13 -4 -16 -10z"/>
<path d="M3293 2821 c-18 -47 -16 -68 7 -91 15 -15 20 -16 20 -6 0 8 6 16 13
19 9 3 7 8 -5 18 -10 8 -18 31 -20 54 l-3 40 -12 -34z"/>
<path d="M1110 2930 c-22 -22 -26 -51 -10 -81 12 -21 50 -25 68 -7 17 17 15
74 -4 92 -20 21 -30 20 -54 -4z"/>
<path d="M2638 1228 c-9 -5 -4 -8 15 -8 15 0 27 4 27 8 0 11 -25 11 -42 0z"/>
<path d="M2690 1230 c0 -5 5 -10 10 -10 6 0 10 5 10 10 0 6 -4 10 -10 10 -5 0
-10 -4 -10 -10z"/>
</g>
</svg>
